<svg xmlns="http://www.w3.org/2000/svg" width="10" height="9" viewBox="0 0 10 9">
  <path fill="#FFFEE7" d="M10,0.416666667 L10,2.63861111 C10,3.01119792 9.54930556,3.19381944 9.28869792,2.93324653 L8.66878472,2.31329861 L4.44095486,6.54112847 C4.27822917,6.70385417 4.01442708,6.70385417 3.85170139,6.54112847 L3.45887153,6.14829861 C3.29614583,5.98557292 3.29614583,5.72175347 3.45887153,5.55904514 L7.68673611,1.33118056 L7.06689236,0.711302083 C6.80524306,0.449652778 6.99055556,0 7.36152778,0 L9.58333333,0 C9.81345486,0 10,0.186545139 10,0.416666667 Z M7.06647569,4.70128472 L6.78869792,4.9790625 C6.71055707,5.05720468 6.66666073,5.16318913 6.66666667,5.27369792 L6.66666667,7.77777778 L1.11111111,7.77777778 L1.11111111,2.22222222 L5.69444444,2.22222222 C5.8049457,2.22221592 5.91092025,2.1783211 5.9890625,2.10019097 L6.26684028,1.82241319 C6.52932292,1.55991319 6.34342014,1.11111111 5.97222222,1.11111111 L0.833333333,1.11111111 C0.373090278,1.11111111 0,1.48420139 0,1.94444444 L0,8.05555556 C0,8.51579861 0.373090278,8.88888889 0.833333333,8.88888889 L6.94444444,8.88888889 C7.4046875,8.88888889 7.77777778,8.51579861 7.77777778,8.05555556 L7.77777778,4.99590278 C7.77777778,4.6246875 7.32895833,4.43878472 7.06647569,4.70128472 Z"/>
</svg>
