<svg xmlns="http://www.w3.org/2000/svg" width="10" height="6" viewBox="0 0 10 6">
  <path fill="#FFFEE7" fill-rule="evenodd" d="M113.142857,12.5714286 C113.142857,12.7261912 113.08631,12.8601185 112.973214,12.9732143 L108.973214,16.9732143 C108.860118,17.0863101 108.726191,17.1428571 108.571429,17.1428571 C108.416666,17.1428571 108.282739,17.0863101 108.169643,16.9732143 L104.169643,12.9732143 C104.056547,12.8601185 104,12.7261912 104,12.5714286 C104,12.4166659 104.056547,12.2827387 104.169643,12.1696429 C104.282739,12.0565471 104.416666,12 104.571429,12 L112.571429,12 C112.726191,12 112.860118,12.0565471 112.973214,12.1696429 C113.08631,12.2827387 113.142857,12.4166659 113.142857,12.5714286 Z" opacity="1" transform="translate(-104 -12)"/>
</svg>
