<svg xmlns="http://www.w3.org/2000/svg" width="15" height="15" viewBox="0 0 15 15">
  <path fill="#FFFEE7" fill-rule="evenodd" d="M75.5,22 C71.3578644,22 68,18.6421356 68,14.5 C68,10.3578644 71.3578644,7 75.5,7 C79.6421356,7 83,10.3578644 83,14.5 C83,18.6421356 79.6421356,22 75.5,22 Z M75.5,21.1176471 C79.1548256,21.1176471 82.1176471,18.1548256 82.1176471,14.5 C82.1176471,10.8451744 79.1548256,7.88235294 75.5,7.88235294 C71.8451744,7.88235294 68.8823529,10.8451744 68.8823529,14.5 C68.8823529,18.1548256 71.8451744,21.1176471 75.5,21.1176471 Z M73.5,10 L80,14.5 L73.5,19 L73.5,10 Z" transform="translate(-68 -7)"/>
</svg>
