<svg xmlns="http://www.w3.org/2000/svg" width="15" height="15" viewBox="0 0 15 15">
  <path fill="#FFFEE7" fill-rule="evenodd" d="M75.5,22 C71.3578644,22 68,18.6421356 68,14.5 C68,10.3578644 71.3578644,7 75.5,7 C79.6421356,7 83,10.3578644 83,14.5 C83,18.6421356 79.6421356,22 75.5,22 Z M75.5,21.1176471 C79.1548256,21.1176471 82.1176471,18.1548256 82.1176471,14.5 C82.1176471,10.8451744 79.1548256,7.88235294 75.5,7.88235294 C71.8451744,7.88235294 68.8823529,10.8451744 68.8823529,14.5 C68.8823529,18.1548256 71.8451744,21.1176471 75.5,21.1176471 Z M70.4288668,16.6705285 L75.9411765,14.9411765 L75.9411765,9.00268416 C78.7805889,9.22743587 81.0147059,11.6028149 81.0147059,14.5 C81.0147059,17.545688 78.545688,20.0147059 75.5,20.0147059 C73.2249609,20.0147059 71.2716834,18.6370804 70.4288668,16.6705285 Z" transform="translate(-68 -7)"/>
</svg>
