<svg xmlns="http://www.w3.org/2000/svg" width="171" height="51" viewBox="0 0 171 51">
  <g fill="#FFF" fill-rule="evenodd">
    <path fill-rule="nonzero" d="M85.2761361.299504533C92.28439.299504533 98.2085246 2.71573915 103.048544 7.54895838 107.88779 12.3821776 110.307802 18.2987699 110.307802 25.2995045 110.307802 32.3002391 107.928986 38.1550353 103.173659 42.8623738 98.1253708 47.8214738 92.1592746 50.2995045 85.2761361 50.2995045 78.4757823 50.2995045 72.6138246 47.8413199 67.6917977 42.9249353 62.76824 38.0085545 60.3078015 32.1323891 60.3078015 25.2995045 60.3078015 18.4658584 62.76824 12.5492622 67.6917977 7.54895838 72.4887092 2.71573146 78.3506592.299504533 85.2761361.299504533zM85.3386977 4.79856223C79.6644284 4.79856223 74.8675169 6.79822376 70.9456861 10.7990776 66.8571554 14.9242968 64.81289 19.7575122 64.81289 25.2995045 64.81289 30.8414968 66.8361708 35.6327468 70.88274 39.6748045 74.9293131 43.7168584 79.7475823 45.7371238 85.3386977 45.7371238 90.9286746 45.7371238 95.7885246 43.6954968 99.9190169 39.6122468 103.841228 35.820443 105.80119 31.0490199 105.80119 25.2995045 105.80119 19.5904276 103.799267 14.7572084 99.7946592 10.7990776 95.8304823 6.79822376 91.0125977 4.79856223 85.3386977 4.79856223zM92.0349169 19.1097776L92.0349169 29.3362161 89.1823284 29.3362161 89.1823284 41.445593 81.4325092 41.445593 81.4325092 29.3362161 78.5803015 29.3362161 78.5803015 19.1097776C78.5803015 18.2178968 79.3031823 17.4953968 80.1946592 17.4953968L90.4205592 17.4953968C91.3108977 17.4953968 92.0349169 18.2179045 92.0349169 19.1097776zM85.3074188 16.1495762C83.3755131 16.1495762 81.8093942 14.5834332 81.8093942 12.651498 81.8093942 10.7195628 83.3755131 9.15341992 85.3074188 9.15341992 87.2393244 9.15341992 88.8054433 10.7195628 88.8054433 12.651498 88.8054433 14.5834332 87.2393244 16.1495762 85.3074188 16.1495762zM144.673036.301919205C131.170712.644367017 120.307802 11.7169958 120.307802 25.3007113 120.307802 39.1000414 131.507805 50.2995033 145.307802 50.2995033 159.107798 50.2995033 170.307802 39.1000414 170.307802 25.3007113 170.307802 11.5013812 159.107798.301919205 145.307802.301919205 145.092177.301919205 144.887359.296483525 144.673036.301919205zM144.648622 4.59858659C144.870132 4.59156373 145.084596 4.59858659 145.307802 4.59858659 156.735929 4.59858644 166.010927 13.8731369 166.010927 25.3007113 166.010925 36.7282849 156.735928 46.002836 145.307802 46.002836 133.879676 46.0028352 124.604677 36.7282857 124.604677 25.3007113 124.604676 14.0963316 133.528829 4.95113432 144.648622 4.59858659zM134.460754 21.2263355L132.319521 21.2263355 137.177919 26.6704084 142.036318 21.2263355 140.283309 21.2263355C140.663073 18.5703701 142.999614 16.8621518 145.698427 17.0761454 145.805112 17.0846044 145.907688 17.0761454 146.01581 17.0761454 150.41224 17.0761454 152.146138 20.4008793 152.290224 25.3032869 152.440591 30.4196014 149.474998 33.6000548 146.01581 33.5304285 142.364727 33.4583898 140.981397 31.7121491 140.449404 29.0628709L133.930849 29.0628709C135.003644 35.1651003 139.496361 38.7436813 145.869326 38.7547854 153.083841 38.7674809 158.296082 32.7321491 158.296082 25.3032869 158.296082 17.3701601 153.085638 11.8517885 145.869326 11.8517885 145.655073 11.8517885 145.44616 11.8401539 145.23456 11.8517885 145.183313 11.8546063 145.139271 11.850951 145.088076 11.8517885 140.578537 11.926763 134.460787 15.0858056 134.460754 21.2263355z"/>
    <path d="M25.273832,0.265793893 C18.4143553,0.265793893 12.3788374,2.80058515 7.71474079,7.52619971 C2.91397608,12.3898748 0.307801527,18.6909572 0.307801527,25.2665828 C0.307801527,31.9100553 2.84524702,38.074655 7.64680172,42.8689054 C12.4483564,47.6639447 18.6892715,50.2657939 25.273832,50.2657939 C31.8576024,50.2657939 38.2367657,47.6631558 43.1749885,42.8002696 C47.8390851,38.2111377 50.3078015,32.1151738 50.3078015,25.2657939 C50.3078015,18.4850498 47.8390851,12.3204501 43.1062595,7.5940466 C38.3047048,2.80058515 32.1325187,0.265793893 25.273832,0.265793893 Z M25.3417711,4.78628996 C30.9664946,4.78628996 35.9734465,6.90926639 39.8823133,10.8136181 C43.7232411,14.6493339 45.7803731,19.7181275 45.7803731,25.2657939 C45.7803731,30.8820961 43.7911802,35.8136181 39.9510424,39.581487 C35.9039274,43.5544745 30.6915783,45.6774509 25.3417711,45.6774509 C19.9240247,45.6774509 14.8483438,43.5544745 10.9386869,39.6501228 C7.02903012,35.7457712 4.83443996,30.6091307 4.83443996,25.2665828 C4.83443996,19.8553991 7.02903012,14.7187586 10.9386869,10.7457712 C14.7796147,6.8414195 19.7178376,4.78628996 25.3417711,4.78628996 Z M25.0194554,21.1121444 C23.6053747,18.5371183 21.1927475,17.5123148 18.3922356,17.5123148 C14.315891,17.5123148 11.0714051,20.3918629 11.0714051,25.2665828 C11.0714051,30.2233501 14.1215537,33.0208509 18.5304837,33.0208509 C21.3594352,33.0208509 23.7720624,31.4698395 25.1024043,29.1164992 L21.9969566,27.5378757 C21.303346,29.1993355 20.2495003,29.6979312 18.9191584,29.6979312 C16.6171297,29.6979312 15.5632841,27.7871736 15.5632841,25.2673717 C15.5632841,22.7475699 16.451232,20.8360233 18.9191584,20.8360233 C19.5843294,20.8360233 20.9154613,21.1965585 21.6920207,22.8572294 L25.0194554,21.1121444 Z M39.461249,21.1121444 C38.0471683,18.5371183 35.6345411,17.5123148 32.8340292,17.5123148 C28.7576846,17.5123148 25.5131987,20.3918629 25.5131987,25.2665828 C25.5131987,30.2233501 28.5633473,33.0208509 32.9730673,33.0208509 C35.8012288,33.0208509 38.213856,31.4698395 39.5449879,29.1164992 L36.4395401,27.5378757 C35.7459296,29.1993355 34.6928739,29.6979312 33.361742,29.6979312 C31.0597133,29.6979312 30.0058676,27.7871736 30.0058676,25.2673717 C30.0058676,22.7475699 30.8938156,20.8360233 33.361742,20.8360233 C34.0269129,20.8360233 35.3580448,21.1965585 36.1346043,22.8572294 L39.461249,21.1121444 Z"/>
  </g>
</svg>
