<svg xmlns="http://www.w3.org/2000/svg" width="340" height="297" viewBox="0 0 340 297">
  <defs>
    <filter id="moonsheep-logo-a" width="256.9%" height="346%" x="-78.5%" y="-123%" filterUnits="objectBoundingBox">
      <feGaussianBlur in="SourceGraphic" stdDeviation="41"/>
    </filter>
  </defs>
  <g fill="none" fill-rule="evenodd" transform="translate(33 30)">
    <rect width="267" height="225"/>
    <path fill="#FDFBDA" d="M124.550064,168.081081 C138.736589,168.081081 150.633365,167.990328 160.016376,160.96811 C172.951149,148.834219 180.461663,138.792378 180.461663,128.332127 C180.461663,127.204703 198.820695,149.252629 210.086465,139.210788 C217.596978,135.863508 207.725429,120.805431 204.244955,109.085265 C206.748459,113.687776 208.000211,111.177315 208.417462,103.645935 C208.834713,97.369784 205.079456,94.4409137 203.410453,96.5329639 C204.241686,95.4733907 205.139606,93.5514316 204.244955,92.3488635 C203.377261,91.1825309 200.720242,90.7343215 201.224452,89.7776046 C201.589716,89.0845308 201.903982,88.4061355 202.158701,87.746353 C202.756451,86.1980411 201.41539,84.0021875 199.655197,83.1438426 C197.226461,81.9594885 193.98582,82.250292 193.813686,80.6333823 C193.70181,79.58249 189.817615,74.2195059 186.720424,73.9388217 C183.394311,73.6373913 180.831454,78.4350773 180.461663,77.704512 C179.284306,75.3785066 170.113777,72.3872974 166.275138,73.9388217 C162.968455,75.2753365 164.825239,80.9613599 165.023385,81.8886125 C162.107744,78.6974594 156.580359,79.9196515 155.843869,79.7965623 C153.471462,77.904326 154.228469,77.1660977 151.671362,75.6124618 C143.07118,70.3872018 131.848505,68.0810811 120.794807,68.0810811 C109.794905,68.0810811 95.3846693,72.2231796 84.0767419,80.6333823 C77.2672124,85.6979288 74.0627242,94.4409137 71.141969,100.717064 C68.8573466,100.25887 64.8010765,100.255233 62.3797035,102.390705 C59.4589483,104.064345 60.7107005,105.737985 61.9624527,107.411625 C58.6244468,107.411625 55.7036916,112.014135 56.1209424,114.524596 C56.2025717,115.588725 59.876199,117.453466 62.3797035,117.871876 C61.1279512,117.871876 58.5123981,120.53607 58.2071961,122.474387 C58.2071961,124.222558 60.1795295,126.477931 62.7969542,126.658487 C66.4441155,126.910077 70.4322118,124.033335 71.5592197,123.729617 C73.2338869,133.211517 75.9244754,142.238639 81.5732375,149.252629 C90.7688087,160.670644 107.385307,168.081081 124.550064,168.081081 Z"/>
    <path fill="#FDFBDA" d="M124.550064,168.081081 C138.736589,168.081081 150.633365,167.990328 160.016376,160.96811 C172.951149,148.834219 180.461663,138.792378 180.461663,128.332127 C180.461663,127.204703 198.820695,149.252629 210.086465,139.210788 C217.596978,135.863508 207.725429,120.805431 204.244955,109.085265 C206.748459,113.687776 208.000211,111.177315 208.417462,103.645935 C208.834713,97.369784 205.079456,94.4409137 203.410453,96.5329639 C204.241686,95.4733907 205.139606,93.5514316 204.244955,92.3488635 C203.377261,91.1825309 200.720242,90.7343215 201.224452,89.7776046 C201.589716,89.0845308 201.903982,88.4061355 202.158701,87.746353 C202.756451,86.1980411 201.41539,84.0021875 199.655197,83.1438426 C197.226461,81.9594885 193.98582,82.250292 193.813686,80.6333823 C193.70181,79.58249 189.817615,74.2195059 186.720424,73.9388217 C183.394311,73.6373913 180.831454,78.4350773 180.461663,77.704512 C179.284306,75.3785066 170.113777,72.3872974 166.275138,73.9388217 C162.968455,75.2753365 164.825239,80.9613599 165.023385,81.8886125 C162.107744,78.6974594 156.580359,79.9196515 155.843869,79.7965623 C153.471462,77.904326 154.228469,77.1660977 151.671362,75.6124618 C143.07118,70.3872018 131.848505,68.0810811 120.794807,68.0810811 C109.794905,68.0810811 95.3846693,72.2231796 84.0767419,80.6333823 C77.2672124,85.6979288 74.0627242,94.4409137 71.141969,100.717064 C68.8573466,100.25887 64.8010765,100.255233 62.3797035,102.390705 C59.4589483,104.064345 60.7107005,105.737985 61.9624527,107.411625 C58.6244468,107.411625 55.7036916,112.014135 56.1209424,114.524596 C56.2025717,115.588725 59.876199,117.453466 62.3797035,117.871876 C61.1279512,117.871876 58.5123981,120.53607 58.2071961,122.474387 C58.2071961,124.222558 60.1795295,126.477931 62.7969542,126.658487 C66.4441155,126.910077 70.4322118,124.033335 71.5592197,123.729617 C73.2338869,133.211517 75.9244754,142.238639 81.5732375,149.252629 C90.7688087,160.670644 107.385307,168.081081 124.550064,168.081081 Z" filter="url(#moonsheep-logo-a)"/>
    <g fill="#231F20" transform="translate(55 67)">
      <path d="M160,67.4523875 C159.870684,66.6360966 159.753685,65.8174118 159.607316,65.0044723 C159.531527,64.5845971 159.417369,64.1704671 159.29658,63.7611248 C159.067317,62.9864863 158.803949,62.2219018 158.586055,61.4443907 C158.394686,60.7611959 158.258266,60.0626807 158.073529,59.377092 C157.938055,58.8724759 157.776529,58.3736048 157.603635,57.8800002 C157.364425,57.1972841 157.120951,56.5150469 156.847636,55.8457362 C156.044742,53.8780203 155.35127,51.8633856 154.393481,49.9612602 C153.944903,49.0712398 153.506272,48.175953 153.04301,47.2932577 C152.757852,46.7494787 152.431484,46.2278185 152.131642,45.691604 C152.057274,45.5581248 152.013695,45.40674 151.927959,45.193499 C152.124064,45.193499 152.260011,45.1882804 152.395011,45.1944565 C152.698168,45.2088194 152.947799,45.0933417 153.157641,44.8812976 C153.568325,44.4655398 153.85064,43.9865853 153.950587,43.3923447 C154.100271,42.4978239 154.291639,41.6105325 154.447008,40.7168256 C154.492955,40.4527399 154.474481,40.1772597 154.488692,39.9071416 C154.532744,39.0475705 154.579165,38.1879994 154.623692,37.3283805 C154.69806,35.8817502 154.791376,34.4342582 154.608534,32.9892078 C154.461218,31.8232284 154.06285,30.7509908 153.435693,29.7565522 C152.797642,28.7443994 152.033116,27.8399203 151.208433,26.9853284 C151.059697,26.8315018 151.076749,26.6773401 151.080065,26.5041716 C151.091433,25.8253335 151.003802,25.1538684 150.648066,24.5755706 C150.403171,24.1770004 150.064487,23.8296579 149.731488,23.4963431 C149.330278,23.094996 148.891173,22.7329076 148.426963,22.3167668 C148.528805,22.0718316 148.660489,21.8049213 148.750016,21.5242225 C148.821542,21.3010232 148.858963,21.0628386 148.882173,20.8280533 C148.925752,20.3867774 148.94991,19.9435386 148.978331,19.5006829 C149.001068,19.1465897 148.939963,18.8146155 148.816331,18.4739277 C148.561016,17.7717261 148.112911,17.197402 147.684228,16.6121142 C147.551122,16.4308067 147.314754,16.3264842 147.12386,16.1892228 C147.04665,16.1339736 146.957123,16.0938533 146.886071,16.0318056 C146.089809,15.3362108 145.165178,14.8444734 144.182285,14.5221222 C143.193707,14.1977603 142.163446,14.1704229 141.226026,14.7666744 C141.018079,14.8987651 140.828132,15.0890734 140.688869,15.2937445 C140.482816,15.5967536 140.655711,15.8911929 141.016658,15.9143171 C141.126079,15.9213071 141.245447,15.9135511 141.342552,15.954629 C141.666078,16.0910764 141.949814,16.0294118 142.236393,15.8448965 C142.629077,15.592349 143.07576,15.6715364 143.476497,15.7651346 C144.991337,16.1187968 146.247545,16.8698802 147.043334,18.2846248 C147.214807,18.5898363 147.362596,18.8932284 147.451649,19.2349694 C147.587122,19.752991 147.544017,20.2435315 147.334649,20.7300983 C147.215755,21.006967 147.109176,21.2896287 147.004018,21.5725297 C146.935808,21.7568535 146.805071,21.7827545 146.628387,21.7805522 C146.191177,21.7745677 145.752546,21.7738017 145.316283,21.8017136 C144.942073,21.8256517 144.724653,22.0498564 144.624232,22.4434475 C144.6086,22.5039152 144.580653,22.5613668 144.555548,22.6188184 C144.398285,22.9836836 144.620916,23.4263 145.008863,23.4554567 C145.492494,23.4917469 145.97944,23.4841825 146.46544,23.4943322 C146.512334,23.4953377 146.565861,23.5011307 146.606597,23.4821717 C147.175018,23.2164582 147.631649,23.4921299 148.023385,23.8434462 C148.563384,24.3273799 149.110015,24.8215111 149.398488,25.5223244 C149.488962,25.7427469 149.597909,25.9595787 149.65333,26.1891934 C149.692172,26.3479512 149.691225,26.5366796 149.643856,26.6924691 C149.554804,26.9882967 149.523067,27.2735916 149.57233,27.5819628 C149.638646,27.9981036 149.489436,28.375321 149.218962,28.6745478 C149.033278,28.8802244 148.786489,29.0362054 148.549647,29.1872551 C148.153174,29.4401856 148.117174,29.6731996 148.447805,30.0203028 C148.490437,30.0653543 148.568595,30.107677 148.571437,30.1545479 C148.5847,30.3769812 148.694595,30.5622625 148.898752,30.5548895 C149.154068,30.5459366 149.45533,30.5052418 149.649067,30.3594106 C150.075382,30.0382564 150.407434,29.6129233 150.61775,29.10486 C150.65896,29.0050858 150.725276,28.9161317 150.812907,28.7653213 C150.944118,28.9209193 151.042644,29.0555953 151.158223,29.1724614 C151.837959,29.8594863 152.278958,30.7075192 152.657431,31.576857 C153.000852,32.3668159 153.162852,33.2178172 153.146273,34.0923735 C153.122115,35.353914 153.125431,36.6168429 153.065746,37.8768035 C153.029273,38.6523995 152.935483,39.43015 152.799063,40.1945909 C152.598221,41.3193009 152.329169,42.431228 152.105116,43.5519164 C152.040695,43.8738845 151.910906,44.1208305 151.55138,44.2762369 C151.399801,43.9309531 151.243959,43.5786314 151.090012,43.2255437 C150.830434,42.6287177 150.582697,42.0258594 150.308908,41.435401 C150.08533,40.9520418 149.470488,40.8503047 149.08112,41.2125847 C148.875542,41.4034675 148.834805,41.6705693 148.952278,41.9522735 C149.558593,43.4014891 150.125119,44.8645409 150.649013,46.3478923 C150.973486,47.2667342 151.367591,48.174038 151.905695,49.0085219 C152.281326,49.5902189 152.559852,50.2355914 152.879115,50.8536745 C153.126852,51.333395 153.393062,51.8049765 153.610009,52.2985812 C153.813219,52.7605875 153.954377,53.2498832 154.138166,53.7214648 C154.235745,53.9728154 154.357955,54.2155482 154.48206,54.456366 C155.015428,55.4909728 155.37448,56.5902127 155.643532,57.7196146 C155.83869,58.536863 155.968479,59.3708681 156.189689,60.1799776 C156.432215,61.0671254 156.757162,61.9308139 157.025741,62.811259 C157.224214,63.463813 157.40374,64.1235484 157.561951,64.7866351 C157.627793,65.0624026 157.640109,65.3573206 157.635845,65.6426634 C157.627793,66.2095187 157.780319,66.7773317 157.635372,67.3432295 C157.498951,67.8784865 157.480951,68.4424693 157.237004,68.9518732 C157.183951,69.063425 157.184425,69.1993936 157.143214,69.3181269 C156.999215,69.7346507 156.757162,70.0908503 156.404742,70.3474673 C156.036216,70.6155746 155.862374,70.9961912 155.709848,71.4017034 C155.673374,71.4984135 155.624111,71.6238494 155.544532,71.6650231 C155.012112,71.9388755 154.471166,72.1969288 153.928324,72.4506731 C153.849219,72.4875379 153.745956,72.4717387 153.626588,72.4827503 C153.48922,71.9202037 153.48922,71.366275 153.465062,70.8142612 C153.438062,70.1952207 153.372693,69.5766589 153.364641,68.9580971 C153.359904,68.6291869 153.389272,68.2806475 153.493956,67.9728028 C153.882377,66.8295168 154.268903,65.6891034 154.507639,64.4988986 C154.600481,64.0364135 154.837323,63.6050481 154.980375,63.150702 C155.189743,62.4857002 155.372112,61.8125594 155.56869,61.1442063 C155.609427,61.0068013 155.65869,60.8717901 155.709848,60.7382152 C155.916374,60.195298 155.916848,60.1957768 155.476796,59.773029 C155.22527,59.530775 154.916902,59.5164121 154.720323,59.7763804 C154.58106,59.9607041 154.463587,60.1785413 154.397271,60.3997298 C154.106429,61.3706612 153.850166,62.3521253 153.555062,63.3216204 C153.379799,63.898051 153.146746,64.4558099 152.956799,65.0274529 C152.74601,65.6598988 152.555116,66.2985687 152.353326,66.9338872 C152.339116,66.9779333 152.306905,67.0157556 152.265221,67.0866125 C151.913748,66.8146752 151.568433,66.5494405 151.225012,66.2813332 C150.178171,65.4640848 149.115699,64.6655081 148.090648,63.8209702 C147.445017,63.2881069 146.866176,62.6724177 146.237124,62.1180102 C145.597178,61.5545061 144.946337,61.0010561 144.274653,60.4777682 C143.377023,59.7782954 142.482235,59.0697262 141.535815,58.4430254 C140.538237,57.7823325 139.481923,57.2121258 138.448346,56.6064906 C138.340819,56.5432939 138.218609,56.4772246 138.098767,56.4681281 C137.745873,56.4422749 137.490557,56.2660901 137.2414,56.0267086 C137.016874,55.809829 136.859611,55.8447787 136.60998,56.0334113 C136.43898,56.1621985 136.383559,56.3163602 136.513348,56.482491 C136.842558,56.9038024 137.039611,57.4093761 137.445558,57.789514 C138.525556,58.8011402 139.714502,59.6542958 140.965026,60.4327644 C142.116551,61.1494727 143.250076,61.8877252 144.264232,62.8117378 C145.08181,63.5562142 145.993177,64.1944053 146.85765,64.8857391 C147.519386,65.4147722 148.186806,65.9380601 148.828173,66.4924677 C149.276752,66.8797869 149.675593,67.3255153 150.115172,67.7238461 C150.429224,68.0087101 150.763171,68.2725085 151.107539,68.5181139 C151.280433,68.6406772 151.384643,68.7866999 151.397907,68.9839503 C151.487907,70.3153902 151.569854,71.6473088 151.651801,72.9797062 C151.656064,73.0405091 151.636169,73.1032271 151.623854,73.1870106 C151.074854,73.2554737 150.538645,73.3651105 149.987751,73.2511649 C149.850382,73.2229178 149.704014,73.2329719 149.561909,73.2358444 C147.887911,73.2693579 146.269808,72.9945479 144.705705,72.3774224 C143.812338,72.0245741 142.902866,71.7133781 142.000499,71.3839892 C141.590289,71.2341364 141.17771,71.0895499 140.768921,70.9344307 C140.416974,70.8008559 140.065975,70.6634509 139.721133,70.5126405 C138.998292,70.1961782 138.276872,69.875407 137.559715,69.5445818 C137.158979,69.3597792 136.749243,69.1826369 136.37977,68.944213 C135.959139,68.6727543 135.583981,68.3294813 135.179455,68.0312119 C134.888614,67.8172049 134.589719,67.6122943 134.280404,67.427013 C133.633352,67.039215 133.099037,66.5211935 132.592669,65.9696585 C131.616881,64.9072834 130.656251,63.8305454 129.666252,62.7810969 C128.624149,61.6770695 127.638413,60.5256445 126.676836,59.3502813 C125.983837,58.5043071 125.230206,57.708603 124.519207,56.8774705 C123.869313,56.1186311 123.234577,55.3463864 122.604104,54.5703116 C122.385263,54.300768 122.210473,53.9943597 121.995421,53.720986 C121.750053,53.4088326 121.654843,53.4045237 121.326106,53.6223609 C121.221896,53.6913027 121.117212,53.7583295 120.977475,53.8492945 C120.729265,53.5155967 120.490055,53.185729 120.241371,52.8635215 C120.125792,52.7136687 119.993161,52.5777 119.865266,52.4374224 C119.734056,52.2937935 119.551214,52.218149 119.402004,52.3359247 C119.281688,52.4307198 119.168951,52.6179161 119.167056,52.7658539 C119.162793,53.0306098 119.192635,53.3202614 119.299214,53.5582066 C119.702319,54.4568448 120.13195,55.3358536 120.816896,56.0745849 C121.188264,56.474352 121.440264,56.9861497 121.750527,57.4443258 C121.909684,57.6793985 122.057,57.9283552 122.248368,58.1342233 C122.593683,58.5067009 122.875999,58.9174796 123.114262,59.3646442 C123.165419,59.4613543 123.235051,59.5504043 123.305156,59.6351453 C123.648103,60.0516691 123.98205,60.4768106 124.344418,60.876099 C124.587417,61.1442063 124.89768,61.3515106 125.134996,61.6239268 C125.986679,62.6034759 126.962467,63.455674 127.886623,64.3595785 C128.485833,64.9446269 129.178358,65.4310501 129.817358,65.9758824 C130.589462,66.6341815 131.344513,67.314025 132.117565,67.9713666 C132.405091,68.2160145 132.726248,68.4199675 133.027511,68.649295 C133.416879,68.946128 133.793457,69.2597178 134.188509,69.5479331 C134.823719,70.0118544 135.428613,70.5140768 136.095559,70.9411334 C136.512401,71.2082832 136.892295,71.5582589 137.323821,71.8196635 C138.12103,72.3012991 138.912555,72.7939462 139.730607,73.2382383 C140.311343,73.5537431 140.926184,73.8079662 141.534394,74.0693708 C142.320709,74.4068987 143.144918,74.6170757 143.992812,74.7056468 C145.118284,74.8234225 146.245651,74.931623 147.374439,75.00631 C148.035227,75.0503562 148.700752,75.0302482 149.363436,75.0225879 C149.805383,75.0178003 150.228382,75.0335995 150.666066,75.1681319 C151.077223,75.2945253 151.535275,75.2863864 151.969643,75.1240857 C152.117432,75.069028 152.303116,75.0675917 152.459905,75.09919 C152.6778,75.143715 152.856852,75.1470663 153.01601,74.961785 C153.182273,74.767886 153.406325,74.6984654 153.657377,74.7180947 C153.874324,74.7353301 154.041535,74.6587281 154.212061,74.5112691 C154.399639,74.3484896 154.628428,74.2230537 154.85627,74.1210772 C155.685216,73.7490784 156.283005,73.091258 156.905425,72.4626422 C157.361583,72.0020722 157.874108,71.5845909 158.256845,71.0680056 C158.78216,70.3599151 159.238791,69.5934156 159.662737,68.8173408 C159.852684,68.4697588 159.892,68.0379146 160,67.6438927 L160,67.4523875 Z"/>
      <path d="M125.555152,8.60124221 C125.116678,8.22514024 124.711018,7.84765186 124.274922,7.50965251 C123.372769,6.81003687 122.389769,6.24433018 121.337336,5.80311433 C120.916458,5.6268001 120.508421,5.40430378 120.071849,5.28497615 C119.267663,5.06448774 118.463952,4.81827888 117.61649,4.80111597 C117.063879,4.78997681 116.510793,4.76946259 115.959609,4.72803258 C115.176824,4.66906675 114.415914,4.82803162 113.648347,4.92661078 C113.460498,4.95094482 113.269795,4.95849841 113.085274,4.99712691 C112.811347,5.054735 112.532188,5.10808823 112.272528,5.2086753 C111.8935,5.35549228 111.518752,5.522245 111.162551,5.71844717 C110.889099,5.86884971 110.645133,6.07380066 110.393557,6.26206678 C110.292261,6.33793735 110.218072,6.45568734 110.110594,6.51683319 C109.60554,6.80367847 109.259802,7.26879809 108.859849,7.66598318 C108.365734,8.15720572 107.936771,8.7177492 107.667599,9.37491173 C107.329946,10.1985879 107.180617,11.0479846 107.374174,11.9356273 C107.403659,12.0686757 107.419353,12.204736 107.448362,12.384827 C106.482958,11.936201 105.48046,11.8931742 104.507447,11.7099279 C104.322451,11.6750762 104.137931,11.6340095 103.954361,11.5929907 C103.340403,11.4561655 102.72359,11.4989532 102.109632,11.5808475 C101.773405,11.6256432 101.525634,11.5633022 101.276436,11.2842495 C100.3467,10.2424275 99.4012698,9.21236608 98.4235012,8.21620023 C97.5398952,7.31660563 96.5183743,6.58954847 95.3694011,6.06423915 C94.2789229,5.56565425 93.1808355,5.08418445 92.0775169,4.61488646 C91.7308275,4.46728066 91.3556041,4.38740381 90.9960744,4.26808095 C90.2812952,4.030836 89.5717471,3.77566323 88.8531633,3.55096776 C88.4089825,3.41232587 87.9524368,3.3145212 87.5006469,3.20177666 C86.8733722,3.04500615 86.2470487,2.88505167 85.6173961,2.73764188 C84.4346576,2.4605589 83.2500168,2.19044626 82.0658516,1.91913844 C81.4257365,1.77252704 80.7870482,1.61755409 80.1436042,1.48707774 C78.8310355,1.22075146 77.5217958,0.930320616 76.1997157,0.723151395 C75.2238494,0.570167247 74.2460808,0.421566095 73.2483384,0.398658631 C72.0075805,0.370172982 70.7706272,0.211412249 69.5303449,0.140497881 C68.3866029,0.0749613841 67.2409587,0.0365163243 66.0957901,0.0136085257 C65.0362238,-0.00750648983 63.9757063,-0.000733738167 62.91614,0.0116165287 C62.5100046,0.0163972833 62.1038692,0.0661968266 61.6982094,0.104044627 C61.038596,0.165795722 60.3766049,0.215794766 59.7203205,0.304636964 C58.7872554,0.430928725 57.8579948,0.589290266 56.9268319,0.731718508 C55.7635917,0.909600826 54.5989247,1.07613363 53.4380623,1.26596784 C52.9263508,1.34963104 52.4217727,1.47871142 51.9143413,1.58767438 C51.852993,1.60082145 51.7925958,1.62671402 51.7307719,1.63229316 C50.9712892,1.69922373 50.2698259,1.98866017 49.5498154,2.20478853 C48.8131599,2.42569764 48.076029,2.64620995 47.3451755,2.88505167 C46.6741961,3.10416799 46.0127756,3.35276723 45.3434131,3.5770659 C45.1218934,3.65136361 44.8844896,3.67686415 44.6621614,3.74877148 C43.7791736,4.03422556 42.8851051,4.29278311 42.0219485,4.6306247 C41.0698606,5.00334189 40.1256196,5.4100885 39.217284,5.87898491 C38.1728408,6.41820622 37.1729583,7.04429385 36.1508667,7.62735469 C35.4783655,8.01101024 34.7903607,8.36837165 34.128322,8.76875985 C33.5931174,9.09265598 33.0394607,9.38566843 32.5375458,9.76832003 C32.0881337,10.1113392 31.5923537,10.3922085 31.1322413,10.7220806 C30.7604895,10.9886077 30.4113747,11.2868311 30.0527011,11.5720988 C29.6577891,11.8861943 29.2489905,12.1852305 28.8732915,12.5208395 C28.5138569,12.8417716 28.1956066,13.2086945 27.8470625,13.5423434 C27.4590939,13.9136646 27.049677,14.2618469 26.6637058,14.6351282 C26.1403428,15.1413145 25.6457517,15.6781455 25.1111653,16.1715672 C24.3900609,16.837096 23.8166206,17.6314662 23.1710365,18.3619655 C22.7947193,18.7874527 22.5070004,19.2908183 22.160644,19.7443685 C21.0468153,21.2035026 20.2369699,22.838712 19.4303108,24.475738 C18.945992,25.458183 18.5776168,26.486858 18.2183724,27.5208874 C17.8488082,28.5846053 17.4360624,29.6331682 17.0470951,30.6903365 C16.7526231,31.4906827 16.465903,32.2938494 16.1625379,33.1316767 C16.0765551,33.1022272 15.9753066,33.0783235 15.8837597,33.0344839 C14.5691936,32.4063884 13.1914245,32.2576113 11.7611526,32.4609846 C10.6443754,32.6195622 9.58404819,32.9327017 8.5605775,33.4244979 C7.88864694,33.7473901 7.31358967,34.1758891 6.74428677,34.6410087 C6.0182841,35.2342048 5.48146252,35.9768472 5.01540552,36.7696397 C4.68628367,37.3287968 4.72611252,37.9564621 4.89651343,38.5702153 C5.04674548,39.1102016 5.49734651,39.4514518 5.79315003,39.9275194 C5.06576821,40.0705596 4.43601582,40.4205586 3.83362763,40.8217117 C3.5867268,40.9862653 3.33764787,41.1635357 3.13711971,41.3798648 C2.52601435,42.0390353 1.89330868,42.6718638 1.3862339,43.4340117 C0.91759932,44.1389818 0.541505586,44.8799987 0.193350542,45.6411427 C-0.0911981834,46.2626408 -0.00559578157,46.9369184 0.0972457834,47.5652052 C0.167392118,47.9926046 0.469576345,48.3932319 0.711521278,48.7780826 C1.1524112,49.4798974 1.80413961,49.9498456 2.5658432,50.2266513 C3.11155791,50.4245745 3.69254076,50.528795 4.26223362,50.6540507 C4.58423146,50.7248059 4.91553616,50.7544466 5.29522995,50.8099033 C5.20563287,50.8797024 5.1449979,50.9361153 5.0764685,50.9791421 C4.41124346,51.4003265 3.84373346,51.9338588 3.38877147,52.5716114 C2.6583793,53.5961271 2.18182174,54.716736 2.22700074,56.0132767 C2.24483455,56.521949 2.40177211,56.9976341 2.69186882,57.3882217 C3.39987123,58.3419823 4.32762428,59.0084195 5.40974681,59.5199602 C6.69197425,60.1256818 8.02418393,60.2088669 9.38825669,60.1624936 C10.6828013,60.1180326 11.9325475,59.8134985 13.0921734,59.2493695 C13.8508952,58.8807733 14.6587432,58.5403836 15.1911895,57.8160992 C15.2375574,57.7534714 15.3261558,57.7104446 15.3461297,57.6430359 C15.3699081,57.5631973 15.3720957,57.44081 15.325918,57.3867875 C15.2809768,57.333243 15.1376881,57.2992997 15.081999,57.3322869 C14.9365702,57.4192966 14.8057889,57.5378593 14.6865163,57.6616809 C14.5172616,57.8371346 14.3617031,57.9614342 14.0773608,57.9432673 C13.8393864,57.9279689 13.579203,58.0293209 13.3513581,58.1301948 C12.3469102,58.5738489 11.2911484,58.8396588 10.2143665,58.993121 C9.6728368,59.0700912 9.11023942,59.005551 8.55739119,58.9897745 C8.27680585,58.9816472 7.99408045,58.9577435 7.71706188,58.9113701 C6.8362617,58.7641229 6.00201966,58.4581546 5.25024118,57.9867722 C4.4889228,57.5096529 3.86156727,56.8962821 3.6386446,55.9554295 C3.49320152,55.3411026 3.62774457,54.7717147 3.88157919,54.2434413 C4.33218022,53.3064134 4.90207758,52.4382284 5.8321942,51.9061304 C6.19524309,51.6981675 6.6049928,51.5580914 7.00922591,51.4423972 C7.47808877,51.3075799 7.87894535,51.060893 8.2639655,50.7836092 C8.53123493,50.5909448 8.48962269,50.1372512 8.20252207,49.978052 C8.08163259,49.9111215 7.9373927,49.8695289 7.79947788,49.8537524 C6.83169624,49.7452293 5.85758955,49.6816452 4.89532451,49.5353542 C4.01176603,49.401015 3.17595462,49.1576745 2.42594525,48.5763348 C1.77996647,48.0757898 1.43418546,47.4761397 1.26535869,46.7158085 C1.13754969,46.1409228 1.3832616,45.6507042 1.60895684,45.1640712 C2.18498903,43.9214574 3.04358968,42.9025352 4.08726251,42.0255057 C4.88205615,41.3573953 5.77531622,41.0063923 6.81305396,41.0041931 C7.24287265,41.0031892 7.65699759,40.919526 8.00554165,40.6245056 C8.3109041,40.3663449 8.34262451,40.2032255 8.03864121,39.9273282 C7.81812016,39.7267277 7.5519921,39.5757515 7.30189069,39.4092378 C6.90935656,39.1484476 6.50155668,38.9163898 6.25207351,38.4813411 C5.95802959,37.9686052 5.86115631,37.4931113 6.17836041,36.9296038 C6.5243364,36.3150856 7.01222199,35.8389702 7.52602606,35.4019614 C8.60951348,34.4806622 9.90267899,33.9469866 11.2755022,33.6503886 C12.2797124,33.4332945 13.3111251,33.3719096 14.3270342,33.6179272 C14.7550457,33.7217174 15.1662222,33.895211 15.5851028,34.0364345 C15.7934017,34.1065682 15.8417195,34.2589308 15.7848415,34.4521689 C15.4800973,35.4868198 15.2599567,36.5401635 15.0964563,37.6052678 C14.9934482,38.2783503 14.889584,38.9522454 14.8220533,39.6295349 C14.7445357,40.403826 14.6761965,41.1817026 14.6603601,41.9591489 C14.643097,42.8167206 14.6741991,43.6762525 14.7138615,44.533394 C14.7614184,45.5608738 14.8049804,46.5908874 14.9143612,47.6130127 C15.078242,49.1438104 15.2169653,50.6784326 15.5431101,52.188673 C15.6859708,52.8508075 15.7218287,53.5368458 15.868494,54.1975461 C15.9743079,54.6751435 16.0878261,55.1479601 16.1629184,55.6327286 C16.2259312,56.0367024 16.3079667,56.4488034 16.458389,56.826483 C16.6832853,57.3920463 16.641673,58.0145006 16.9087998,58.5771954 C17.0635497,58.9037209 17.0088594,59.3234712 17.1002161,59.6887208 C17.3064701,60.513401 17.552006,61.3285197 17.7683896,62.1508095 C18.033091,63.1562022 18.2758686,64.1678099 18.5449452,65.1717683 C18.6965088,65.7368535 18.8879251,66.290943 19.0514255,66.8531597 C19.2440307,67.5167285 19.4081018,68.1874683 19.6779869,68.8285675 C19.8038222,69.1287989 19.8143323,69.4763598 19.9326062,69.7808939 C20.2454826,70.5869291 20.5873211,71.3819686 20.920219,72.1803546 C21.1746481,72.7913351 21.4243215,73.4042278 21.6942065,74.0080371 C21.8097221,74.2661979 21.9858726,74.4966302 22.1083315,74.7519225 C22.5704412,75.7185911 22.9851844,76.7096415 23.4886686,77.6533625 C23.9253831,78.4723058 24.4528835,79.2424853 24.9506609,80.0284414 C25.2793738,80.5471533 25.6126997,81.0639529 25.9689479,81.5640198 C26.261042,81.9737305 26.5687823,82.3772262 26.9068163,82.7491689 C27.6942624,83.6159197 28.4930271,84.4726309 29.3080561,85.3130876 C30.125035,86.1554565 30.9267482,87.0207731 31.8114956,87.78665 C32.5367374,88.4153193 33.2235532,89.1051822 34.0797665,89.5770426 C34.4214148,89.7658824 34.7384287,90.010179 35.0354687,90.2654713 C35.5905045,90.7430687 36.2370873,91.0700723 36.8618415,91.4310193 C37.9970707,92.0869388 39.1344876,92.7395118 40.2879311,93.3619661 C41.093211,93.7960586 41.9207,94.1909489 42.7488072,94.5801024 C43.8075175,95.0768228 44.8708408,95.5649378 45.9440084,96.0291491 C46.7689293,96.3862715 47.6023629,96.7285735 48.4503013,97.0264145 C49.3800374,97.35294 50.3316498,97.6173158 51.2713729,97.9151568 C51.8420549,98.0958693 52.4065546,98.2942706 52.9772366,98.4745051 C53.1693662,98.5352207 53.3695805,98.5873309 53.5693192,98.6050197 C54.0762751,98.6494807 54.5280651,98.8708296 55.0026823,99.0199892 C55.4335472,99.1552845 55.8786792,99.2451627 56.31858,99.3508174 C56.3946709,99.3689843 56.4874067,99.3407778 56.5530352,99.3732869 C57.136082,99.6630007 57.7823794,99.6826018 58.398716,99.8284148 C59.024564,99.9766182 59.6413762,100.162111 60.2691264,100.298841 C60.7004669,100.392544 61.1436967,100.426965 61.580744,100.49533 C62.230846,100.597638 62.8814235,100.701859 63.5296232,100.814684 C64.1602268,100.924642 64.7894038,101.144078 65.417154,101.135951 C66.0391975,101.128302 66.6127329,101.341524 67.228594,101.342958 C67.9300573,101.344392 68.6310451,101.492595 69.3325084,101.573868 C69.8499268,101.633628 70.3687719,101.686694 70.8861903,101.74741 C71.1211211,101.77466 71.3546251,101.810994 71.5881292,101.846371 C71.6651713,101.857845 71.746969,101.903262 71.8168776,101.887964 C72.4056312,101.756493 72.9701309,101.943899 73.5441419,102.006049 C73.6373533,102.016088 73.7334181,102.019913 73.8266295,102.012742 C74.4862429,101.961588 75.1434783,102.040948 75.8021405,102.042382 C76.4427311,102.044295 77.0828462,102.098317 77.7234368,102.120309 C77.8594493,102.124611 77.996413,102.083975 78.1333767,102.074891 C78.3212262,102.061983 78.510978,102.040948 78.6974008,102.056246 C78.9118821,102.073457 79.1277902,102.174809 79.335138,102.15473 C79.8492274,102.104532 80.3756816,102.253214 80.8793085,102.057681 C80.9078426,102.046685 80.945888,102.034255 80.9710932,102.044295 C81.4889871,102.245564 82.0002231,101.985491 82.5195438,102.024693 C83.0236462,102.061983 83.5358334,102.046207 84.040887,102.006049 C84.7946629,101.945811 85.5441586,101.833463 86.2969833,101.763186 C86.7654182,101.719681 87.2376576,101.725418 87.7060924,101.685738 C87.9690817,101.664225 88.2292176,101.599206 88.4884024,101.547096 C89.1841589,101.40702 89.8789643,101.262641 90.5742453,101.122087 C90.9741983,101.041292 91.3798581,100.981533 91.775531,100.882093 C92.5977887,100.675086 93.4162419,100.451825 94.2342194,100.22713 C94.8229731,100.06554 95.4221892,99.9273764 95.9919201,99.7136767 C96.9059626,99.3699404 97.8081158,98.9927389 98.6988553,98.5911555 C99.4007942,98.2746695 100.080381,97.9070295 100.763773,97.548951 C101.098573,97.3734973 101.422435,97.175574 101.74392,96.9762166 C102.416373,96.5593348 103.088827,96.1414968 103.753196,95.7107508 C104.957811,94.9300536 106.109637,94.0805135 107.225321,93.171214 C108.226868,92.3546611 109.121412,91.4381904 110.005493,90.5054652 C110.507694,89.9762356 111.041281,89.4661291 111.46739,88.8785744 C112.198339,87.8712694 113.137111,87.0590192 113.917994,86.1009559 C114.63848,85.2169944 115.397012,84.3641078 116.149837,83.5069185 C116.860811,82.6965806 117.59176,81.9039315 118.300357,81.0921593 C118.644193,80.6982251 118.965201,80.2837337 119.282881,79.8678081 C119.938214,79.0106187 120.599254,78.157254 121.228907,77.2809417 C121.567036,76.8100374 121.889947,76.3166635 122.177666,75.8199431 C122.719338,74.8833933 123.133558,73.8732198 123.611029,72.898424 C123.72897,72.6574739 123.897797,72.4418619 124.021444,72.2033022 C124.434238,71.4044381 124.848933,70.6065302 125.241277,69.7976265 C125.796741,68.6526358 125.966995,67.4158545 125.961288,66.164253 C125.95891,65.6871337 125.863796,65.207624 125.937509,64.7252458 C125.946545,64.6669206 125.92134,64.6028585 125.91278,64.5445333 C125.411055,64.5287568 125.392984,64.5445333 125.403922,64.9704986 C125.41486,65.3959857 125.463368,65.8248194 125.425322,66.2460039 C125.395837,66.5672706 125.254593,66.8780196 125.167089,67.1949837 C125.066268,67.5607114 124.991604,67.9350445 124.866054,68.2916888 C124.652999,68.8974104 124.435189,69.5036101 124.027627,70.0194535 C123.905406,70.174828 123.81695,70.3674925 123.752273,70.5568103 C123.462176,71.4030039 122.855826,72.0718315 122.49059,72.8807352 C122.2062,73.5108386 121.841914,74.1108233 121.449571,74.6897727 C121.175168,75.0951807 120.993501,75.5646508 120.716244,75.9681465 C120.371457,76.4701257 120.107517,77.0203906 119.70471,77.4908169 C119.212497,78.0654636 118.808739,78.7156462 118.343158,79.3146747 C118.035465,79.7105212 117.690203,80.076727 117.353976,80.4496259 C117.100973,80.7312123 116.836557,81.0018031 116.576421,81.2771745 C116.555021,81.3001221 116.522682,81.3178109 116.509842,81.3445832 C116.246377,81.8943699 115.712789,82.2194613 115.383696,82.7090105 C114.975658,83.3152102 114.349335,83.7397412 113.98172,84.3559805 C113.625044,84.9540529 113.013939,85.2734073 112.623497,85.8322775 C112.246371,86.3725028 111.725624,86.8099419 111.28715,87.3090526 C110.601856,88.0887937 109.951279,88.8996097 109.250766,89.6645304 C108.683889,90.282682 108.081819,90.871671 107.464532,91.4396246 C106.836306,92.0176179 106.188106,92.5779223 105.514701,93.101893 C105.031524,93.4776603 104.491754,93.779804 103.97814,94.1158911 C103.740356,94.2717437 103.494011,94.4166005 103.269543,94.5891858 C102.376901,95.2757022 101.379634,95.7872429 100.409475,96.3446789 C100.039007,96.5569444 99.6747216,96.7864206 99.2880845,96.9647428 C98.4720092,97.3409882 97.6578361,97.7301416 96.8156046,98.0385003 C95.6442797,98.467812 94.4534565,98.8469259 93.2597799,99.2093071 C92.6401143,99.3971907 91.9961947,99.5038015 91.3627376,99.64579 C90.8248698,99.766265 90.2874775,99.892955 89.7467563,100.001478 C89.0362572,100.143945 88.3252824,100.288801 87.609552,100.399715 C86.8600563,100.516365 86.1058049,100.614849 85.3506023,100.68417 C84.5473673,100.757315 83.7403278,100.818987 82.9342394,100.830939 C80.6838499,100.863926 78.4329848,100.873488 76.1821197,100.880181 C75.7883491,100.881137 75.395054,100.816597 75.0008078,100.793649 C74.2627257,100.750144 73.5232169,100.721938 72.7846592,100.675086 C72.3285892,100.646402 71.8744214,100.592857 71.4188269,100.553177 C70.9299426,100.510628 70.4396316,100.484812 69.9526496,100.426965 C69.0281447,100.317008 68.105542,100.187928 67.1819883,100.069365 C66.3212095,99.9584513 65.4585285,99.861402 64.5991764,99.7390147 C64.0213609,99.6572638 63.4473498,99.5458722 62.8728633,99.4406956 C62.2512954,99.3273917 61.6311542,99.208829 61.0114887,99.0873978 C60.3309503,98.9540148 59.650412,98.8191975 58.9713003,98.6772091 C58.231316,98.5232688 57.4884782,98.37889 56.7551517,98.1967432 C55.7450445,97.9457536 54.7392174,97.6765971 53.738146,97.3911861 C52.8597712,97.1401965 51.9837743,96.8767769 51.1196665,96.5813262 C50.1856503,96.2624499 49.2773147,95.8651692 48.3375916,95.5649378 C47.0871797,95.1643106 45.9186606,94.571497 44.7099085,94.0742985 C43.8237819,93.710005 42.9669504,93.2716098 42.1067899,92.8461226 C41.1167992,92.3565734 40.1270463,91.8646337 39.1570771,91.3368384 C38.4088178,90.9299962 37.6903291,90.4672191 36.9609499,90.0254774 C36.6904466,89.8614975 36.4178033,89.6989519 36.1613768,89.5144147 C35.3398324,88.9220792 34.4986947,88.3536475 33.7161469,87.7125483 C33.0093572,87.1331209 32.3580188,86.4824602 31.7033038,85.8408829 C30.9568992,85.1099055 30.2045025,84.3798843 29.5085558,83.6010993 C28.7916364,82.7984106 28.1565624,81.9225764 27.4549089,81.1060235 C26.7209642,80.2512246 26.189897,79.2558715 25.5068857,78.3676073 C25.4777334,78.3298393 25.4529562,78.2882467 25.4313654,78.245698 C24.9645,77.3292273 24.4936873,76.414669 24.0340029,75.4948518 C23.6790862,74.7849097 23.3264047,74.0730554 22.9942678,73.3525956 C22.5385306,72.3629794 22.081985,71.3733632 21.6672418,70.3665363 C21.3906037,69.6948403 21.1807829,68.9949378 20.9548879,68.3036407 C20.9023852,68.1434854 20.9061422,67.9646852 20.8857403,67.7940122 C20.8767996,67.7194325 20.8954419,67.6309885 20.8621521,67.5712291 C20.408555,66.7541981 20.3210028,65.8252975 20.0663835,64.948029 C19.7762868,63.9493294 19.5139158,62.9425024 19.2418431,61.938544 C19.081529,61.3462085 18.9269693,60.7519607 18.7680819,60.158669 C18.6095274,59.5668116 18.4413189,58.9768665 18.2918953,58.3826187 C18.1767602,57.9251005 18.0885898,57.4608892 17.9798273,57.0019367 C17.9005501,56.6663278 17.7976846,56.3364557 17.7225924,56.0008467 C17.5872456,55.3975155 17.4610298,54.7917939 17.33781,54.1860723 C17.2367517,53.690308 17.123186,53.195978 17.0544188,52.6949549 C16.9335769,51.8157741 16.8449785,50.9318126 16.7369769,50.0502414 C16.7157666,49.8786123 16.6720143,49.7093736 16.631591,49.540613 C16.5241601,49.0912221 16.4902996,48.6365723 16.4593877,48.1752295 C16.4159683,47.5239473 16.2487584,46.8823222 16.1815606,46.2317571 C16.0941987,45.3821692 16.0341344,44.5286133 15.9972779,43.6754398 C15.9681731,42.9973854 15.962609,42.3155063 15.9988473,41.6382646 C16.0497806,40.6882809 16.1371901,39.7396835 16.2328745,38.7930941 C16.2903707,38.2261922 16.3814896,37.6616329 16.4795993,37.0998942 C16.6573192,36.0846054 16.8822155,35.079643 17.2182997,34.1037953 C17.6726577,32.7834943 18.1228783,31.4616157 18.5972577,30.1484858 C18.9575008,29.1505033 19.345089,28.1620822 19.7338661,27.1748564 C20.0939189,26.2603459 20.4275777,25.3313018 20.8538296,24.4482486 C21.2731383,23.5801592 21.7952648,22.7622199 22.2706429,21.9212373 C22.4424182,21.6168467 22.6217551,21.3160416 22.7755063,21.0025197 C23.1177253,20.3043383 23.59648,19.7059313 24.0849363,19.1107273 C24.3550115,18.7810465 24.5680186,18.4007852 24.856546,18.0902274 C25.5128303,17.3843012 26.1984097,16.7058165 26.8749057,16.0189655 C27.2313917,15.6572536 27.5809345,15.2871276 27.9564433,14.9464988 C28.7173527,14.2566837 29.485776,13.5749959 30.2667068,12.9083197 C30.7283886,12.5140986 31.2089505,12.1391919 31.7023526,11.7857985 C32.0259294,11.5543622 32.3972531,11.391195 32.7297706,11.1710891 C33.0545362,10.9559551 33.3400674,10.6784801 33.6729653,10.4792661 C34.3754273,10.0585596 35.0990997,9.67390013 35.8104549,9.26815748 C35.9614479,9.18191267 36.0898513,9.05503144 36.2416527,8.96993401 C37.1230236,8.4751259 38.0081515,7.98691524 38.8925184,7.49746158 C39.4146449,7.2086562 39.9264991,6.89747688 40.4646999,6.642328 C40.9000352,6.43556036 41.3710381,6.30609753 41.8196417,6.125385 C42.0211876,6.04454244 42.1975283,5.89829916 42.4006436,5.82400623 C42.8131992,5.67303 43.2376439,5.55551905 43.6543369,5.41544294 C44.3352082,5.18677945 45.007757,4.93019635 45.6957142,4.726039 C46.1085075,4.60373295 46.544033,4.55831579 47.0273056,4.46748145 C47.239742,4.05952053 47.7616783,4.15434202 48.1578267,3.98442444 C48.3133376,3.91789068 48.4978581,3.87944863 48.6652582,3.83522665 C49.5060631,3.61331836 50.315956,3.29519739 51.154383,3.0718979 C52.1730505,2.80079087 53.2083628,2.62111098 54.2593689,2.51852555 C54.7986635,2.46593725 55.3298733,2.32908815 55.8663144,2.23924821 C56.3761237,2.15379222 56.899249,2.1229181 57.3962179,1.99204495 C58.447224,1.71575558 59.5472136,1.7868693 60.5929885,1.49385207 C60.7427925,1.45202047 60.9135216,1.41855518 61.0604722,1.44903249 C61.4461581,1.52930614 61.8094924,1.40879288 62.1832891,1.38070595 C62.8100882,1.33409359 63.4406919,1.34863665 64.0693933,1.33210002 C64.5891895,1.31855614 65.1165948,1.23250255 65.6264041,1.29465237 C66.4334436,1.39285863 67.2385809,1.29445157 68.0413403,1.36118613 C68.226812,1.37652279 68.4132348,1.38190114 68.5987064,1.39305464 C69.3092056,1.43628222 70.0192292,1.47970582 70.7292527,1.52353099 C71.3888661,1.56456421 72.0499061,1.58946716 72.7076172,1.65141618 C73.8860756,1.76236793 75.0650096,1.87451966 76.2382367,2.0281014 C76.8774006,2.1117646 77.5041997,2.28626215 78.1386079,2.41115936 C79.2733141,2.63465964 80.4118248,2.84142728 81.5446286,3.07508666 C82.3920915,3.24978022 83.2338475,3.45236469 84.0765546,3.64837563 C85.0276914,3.86968633 85.9807304,4.08342431 86.9261603,4.32744358 C87.4892332,4.47265901 88.0356613,4.67862826 88.5944541,4.84136993 C89.3187448,5.05210559 90.054449,5.22540794 90.7735084,5.45368898 C92.3866363,5.96585122 93.9536341,6.5998749 95.4317006,7.43134375 C96.4475146,8.00283515 97.3016354,8.78310212 98.0787142,9.65382096 C98.6688945,10.3155252 99.2828533,10.9557639 99.8844473,11.6069505 C100.002388,11.7344054 100.112245,11.868888 100.236843,12.0131234 C99.7151449,12.3208605 99.1886907,12.5770134 98.7235849,12.9178812 C97.837601,13.5666296 97.1703786,14.4082814 96.7537807,15.4370998 C96.7119307,15.5396948 96.6791164,15.6492697 96.6658005,15.7586056 C96.5592732,16.6159861 96.5217033,17.4777171 96.7152596,18.3239107 C96.7918261,18.6581333 96.9654086,18.9768662 97.1328087,19.2812568 C97.3710684,19.7122897 97.6345333,20.130032 97.9051317,20.5413681 C98.1091505,20.850922 98.3959183,21.0455465 98.7854088,20.9839704 C99.0902481,20.9355892 99.3365925,21.061084 99.5976795,21.1814156 C99.708487,21.2323784 99.9167859,21.2552782 99.9733785,21.1927459 C100.048043,21.1106604 100.043287,20.9270316 100.022362,20.7953696 C100.002864,20.6754205 99.9381865,20.5459577 99.8554376,20.4561273 C99.3446772,19.8999343 99.1691924,19.1525589 98.7568747,18.5398096 C98.5290774,18.2008063 98.3169739,17.8460265 98.1429159,17.4769044 C97.7586566,16.6615945 97.969809,15.4367174 98.6470184,14.8698155 C99.2276873,14.3841386 99.8135876,13.9044855 100.49793,13.5417697 C101.396279,13.0660846 102.313175,13.0668495 103.264312,13.1957386 C103.969104,13.2911625 104.676274,13.3752082 105.376786,13.4979301 C106.290829,13.6580854 107.223418,13.7467206 108.097037,14.0853415 C108.553583,14.2620382 108.99824,14.4688058 109.347307,14.8423262 C109.518511,15.0257637 109.728237,15.1765487 109.933207,15.3241784 C110.162431,15.4891144 110.528619,15.4307414 110.759269,15.2020779 C111.054597,14.9098304 111.114043,14.649088 110.886246,14.411628 C110.602807,14.1164164 110.313186,13.8271807 110.025467,13.5343595 C110.301297,13.2431637 110.303675,13.1545285 110.074451,12.7951592 C109.8438,12.4347859 109.596505,12.0804364 109.412935,11.6959681 C109.151848,11.147998 109.065295,10.5808571 109.374414,9.99980417 C109.551326,9.66715926 109.66356,9.30023635 109.824777,8.95841239 C110.016907,8.55142675 110.330782,8.25043044 110.665107,7.95043808 C111.586758,7.12499299 112.714806,6.86262518 113.877571,6.68497233 C114.407354,6.60408196 114.941893,6.54274488 115.476907,6.51645073 C116.841789,6.44889867 118.190025,6.61244829 119.516861,6.91961177 C120.052351,7.04352893 120.563111,7.27157093 121.08909,7.43870611 C121.972696,7.71919298 122.762139,8.19028854 123.502124,8.72611552 C124.247815,9.26715352 124.932633,9.89821313 125.241753,10.8181259 C125.357316,11.1617188 125.51996,11.4360385 125.91278,11.4617111 C126.252336,11.483846 126.545286,11.187009 126.748829,10.8195124 C127.086007,10.2119741 127.254834,9.55242115 127.455999,8.89965692 C127.495947,8.76957258 127.585354,8.64527296 127.67809,8.54267797 C128.132733,8.04108119 128.680588,7.67793507 129.332592,7.49229837 C129.848108,7.34529016 130.364575,7.18174055 130.891981,7.09807734 C131.568714,6.99070159 132.24735,7.08335262 132.912195,7.24728469 C133.665495,7.4329214 134.414991,7.65981601 135.05035,8.10939818 C135.563489,8.47235307 136.017181,8.92432561 136.474202,9.36119097 C137.18375,10.0394366 137.642674,10.8948092 138.101122,11.7507556 C138.356502,12.2272534 138.515817,12.7128824 138.423557,13.257506 C138.385987,13.4793808 138.429739,13.6684597 138.606651,13.8172367 C138.779282,13.9624761 138.950011,14.104082 139.201111,13.9959414 C139.444127,13.8911472 139.666693,13.7574773 139.6938,13.4686241 C139.714725,13.2389567 139.793669,13.0591047 139.917317,12.8626635 C140.013858,12.7094881 140.01576,12.454148 139.974385,12.2626788 C139.815545,11.5276377 139.538289,10.8374402 139.074134,10.237073 C138.55196,9.56198266 138.05832,8.85959419 137.486687,8.22934731 C137.065809,7.76542288 136.555049,7.37736903 136.054751,6.99409593 C135.666211,6.69630272 135.239151,6.44631706 134.815895,6.19872178 C134.588098,6.06562557 134.339376,5.92459331 134.085898,5.88873765 C133.535665,5.81128942 133.072937,5.48098709 132.503206,5.43337077 C132.02098,5.39297339 131.562056,5.40310859 131.101706,5.51904189 C130.273742,5.72719595 129.446728,5.93917461 128.622568,6.16224462 C128.158889,6.28793066 127.749425,6.52816358 127.386566,6.84273724 C126.942861,7.22816167 126.500582,7.61640676 126.070193,8.01698619 C125.88805,8.18651175 125.738722,8.39108024 125.555152,8.60124221"/>
      <path d="M101.58866 25.2568362C101.208816 24.9930642 100.866286 24.6297951 100.332877 24.9003207 100.222368 24.9565851 100.088897 25.0073324 100.01953 25.1000759 99.5640991 25.7084732 98.902481 26.1448432 98.5566025 26.8463644 98.4891491 26.9822931 98.3485014 27.0851194 98.2327302 27.1943189 97.3443536 28.0339566 96.8951422 29.1088299 96.6076277 30.2578503 96.4741559 30.7932894 96.4224894 31.3491796 96.3320731 31.8953198 96.3138941 32.0048998 96.2923664 32.1142896 96.2631844 32.2213013 95.903911 33.5470575 95.7527386 34.8945966 95.8752074 36.2639661 95.9058245 36.6072121 95.9919353 36.9498399 96.090006 37.2817664 96.3823044 38.2702218 96.5942327 39.2709953 96.7434914 40.2931712 96.9673796 41.8271961 97.2649403 43.3515185 97.7285035 44.8362228 98.0394592 45.8320025 98.3255385 46.8379126 98.6929447 47.8129083 99.1766004 49.0984757 99.7004413 50.3678724 100.352013 51.5863792 100.845237 52.5095336 101.348985 53.4265051 101.981421 54.2540623 102.867406 55.4135937 103.811276 56.528418 105.063232 57.3421826 105.865976 57.8643998 106.712254 58.2192031 107.69296 58.2515444 107.814472 58.770908 108.168005 59.0729188 108.620565 59.3197592 109.251088 59.6636235 109.89357 59.8234276 110.589154 59.5884775 110.917332 59.4781365 111.234507 59.332125 111.543549 59.1766013 111.646404 59.1242844 111.769829 58.9972972 111.77844 58.8955172 111.811449 58.4898238 112.086526 58.2101666 112.265445 57.8824729 112.705567 57.0753668 113.204053 56.2967971 113.589638 55.465435 113.831705 54.9432178 113.96709 54.3553668 114.055115 53.7827352 114.274219 52.3606684 114.474187 50.9338455 114.611008 49.5022666 114.69664 48.604795 114.707165 47.6921039 114.65502 46.7917311 114.590915 45.6865617 114.539727 44.5829618 114.538292 43.475985 114.537814 43.130361 114.483277 42.7833576 114.433045 42.4399214 114.305314 41.5628533 114.168015 40.6869268 114.030238 39.8110002 113.880979 38.8582155 113.721196 37.90681 113.5772 36.9532167 113.477694 36.2964501 113.390148 35.6375433 113.311691 34.977828 113.275333 34.6681123 113.321259 34.6219308 113.626953 34.5620993 113.734591 34.5408872 113.850841 34.5214825 113.957522 34.5385092 114.833939 34.6788135 115.698874 34.6203613 116.566202 34.4467645 118.1449 34.1306757 119.183014 33.1767019 119.73508 31.720534 120.255572 30.3482158 120.496204 28.9138307 120.393349 27.4370691 120.388087 27.3585938 120.385217 27.2779783 120.364646 27.2026421 120.290495 26.9269799 120.004894 26.6563116 119.777179 26.6430421 119.474355 26.6253971 119.326532 26.8730935 119.262906 27.0702805 119.118431 27.5139748 118.893107 27.9380741 118.92803 28.4384609 118.977305 29.1583882 118.858663 29.8648558 118.4903 30.4958444 118.070271 31.2133936 117.545473 31.8416237 116.786263 32.2428939 116.478656 32.4057895 116.187793 32.6007886 115.888318 32.778761 115.514693 33.000299 115.106145 33.0207026 114.686116 32.9900259 114.225901 32.9563053 113.763773 32.9440346 113.304515 32.9020385 113.073451 32.8810166 112.830427 32.8512912 112.62137 32.7611159 112.242482 32.5980301 111.864551 32.4163004 111.524413 32.1866295 111.227331 31.9860658 110.94173 31.8808614 110.55758 32.0104644 110.201177 31.1735853 109.877305 30.3575377 110.216486 29.443182 110.243754 29.3696531 110.259063 29.2905595 110.271501 29.2128928 110.30738 28.9913548 110.263847 28.7600668 110.053354 28.683161 109.879697 28.6197626 109.626627 28.6138175 109.469714 28.6968585 109.159236 28.8613237 108.944916 29.1296615 108.853064 29.4998269 108.598081 30.5211943 108.685627 31.5065106 109.075517 32.4787477 109.386473 33.2567467 109.815114 33.9473765 110.462858 34.4967033 110.546577 34.5678542 110.611639 34.7010243 110.622163 34.8116031 110.684354 35.4419734 110.725018 36.0741035 110.777641 36.7054727 110.874277 37.8737077 110.980002 39.0411342 111.071375 40.2095118 111.142655 41.1250565 111.22159 42.0410292 111.252208 42.9583337 111.283781 43.9246257 111.293349 44.8940567 111.255556 45.8601585 111.201019 47.268718 111.134523 48.6789898 110.996745 50.0815566 110.923551 50.827785 110.819261 51.5892328 110.469556 52.2836199 110.415497 52.3906317 110.43559 52.5323627 110.410235 52.6560207 110.240405 53.4783463 109.911271 54.2464526 109.57783 55.0112297 109.527599 55.1268023 109.402738 55.244753 109.284575 55.2889845 108.882246 55.4397521 108.801398 55.5225079 108.800441 55.9048964 108.799006 56.4000039 108.789916 56.4080893 108.313437 56.5598081 108.225412 56.587869 108.117295 56.6259176 108.069934 56.6944051 107.834086 57.0335133 107.496341 56.9726355 107.208826 56.8637214 106.751004 56.689649 106.284092 56.4946499 105.887025 56.2149926 104.894837 55.5158494 104.082525 54.6269387 103.341972 53.6681137 102.31534 52.3397416 101.548475 50.8701141 100.863894 49.3472185 100.20706 47.8852006 99.6731728 46.3799501 99.194301 44.8540581 98.7771419 43.523308 98.520723 42.1543665 98.2743504 40.7859958 98.1093047 39.8696902 97.9959254 38.9434443 97.885895 38.0183875 97.8045681 37.3277577 97.7835188 36.6298035 97.7041054 35.9387932 97.5802015 34.8678675 97.6084268 33.7945638 97.6213434 32.7214978 97.6237354 32.5032891 97.6782722 32.2813705 97.737593 32.0689166 97.9370831 31.3529369 98.1308324 30.6345791 98.3652452 29.9294908 98.4738405 29.6020825 98.6685466 29.3028778 98.8268948 28.9925438 99.0077276 28.6399759 99.1718165 28.2765165 99.3818312 27.9422119 99.5229573 27.7191044 99.7224473 27.5288613 99.9128479 27.3411866 100.307523 26.9513786 100.714635 26.5734607 101.116007 26.1900259 101.378167 25.9395233 101.504941 25.6210565 101.58866 25.2568362M131.950789 35.4844345C132.013461 35.4459506 132.023102 35.2800127 132.014425 35.1762301 131.965252 34.5828735 131.72276 34.0450518 131.475929 33.5141839 131.404098 33.3592006 131.250311 33.2766603 131.029996 33.3590101 130.774487 33.4548864 130.506927 33.4485042 130.232135 33.3457217 129.930347 33.2326039 129.861408 33.2943305 129.680624 33.5537157 129.299772 34.0996342 129.382692 34.705136 129.435239 35.3048272 129.443917 35.4030849 129.522016 35.5110112 129.597704 35.584645 129.859479 35.8392672 130.120772 36.0974616 130.408099 36.3223161 130.716637 36.5642215 131.31684 36.5344537 131.758917 36.2701152 131.744454 35.9825339 131.622485 35.6846649 131.950789 35.4844345M132.674407 41.2359638C131.970555 41.2518718 131.31009 41.0661204 130.654447 40.8492199 130.231171 40.7092872 129.809824 40.5644012 129.38703 40.4225157 128.720781 40.198471 128.252189 39.7199945 127.852536 39.1869833 127.260046 38.3971113 126.871963 37.5176023 126.880641 36.5092582 126.885462 35.9087097 126.888836 35.30959 127.086493 34.7263307 127.242209 34.2649529 127.351161 33.7880482 127.49145 33.3210978 127.527124 33.2018359 127.590278 33.0853364 127.663556 32.9831255 128.127809 32.3339959 128.733797 31.8535667 129.477181 31.5521255 129.61988 31.4943521 129.793433 31.4863981 129.951077 31.4935424 130.590329 31.521929 131.230063 31.555269 131.866905 31.6094703 132.049135 31.6249496 132.224134 31.716444 132.402508 31.7729791 132.41215 31.7368767 132.423238 31.7180158 132.418417 31.7120622 131.677443 30.8212177 130.964913 29.8930324 129.709067 29.6677969 129.66134 29.6592714 129.611203 29.6535083 129.569261 29.6332662 128.841304 29.2863874 128.053567 29.2576198 127.270652 29.2311859 126.957293 29.2207076 126.638631 29.2707176 126.326236 29.3183462 126.057712 29.359021 125.795937 29.4405611 125.52934 29.4941432 125.211161 29.5582512 124.933958 29.6951833 124.65772 29.8668366 123.877216 30.3524574 123.236035 31.0005868 122.557733 31.6021355 122.266551 31.8605204 122.025023 32.1966828 121.833633 32.5374175 121.478332 33.1712583 121.167384 33.8305328 120.857399 34.4879974 120.771587 34.6694146 120.72386 34.8803615 120.710362 35.0811635 120.631781 36.2322028 120.758089 37.373907 121.070966 38.4756984 121.236323 39.057386 121.589695 39.5913974 121.889556 40.1300287 122.112282 40.5292989 122.385145 40.9009922 122.635832 41.2850212 122.671025 41.3383652 122.701878 41.3949479 122.742374 41.4435767 123.621708 42.4951676 124.51936 43.540805 125.722177 44.2415639 126.379749 44.6247357 127.100474 44.9162701 127.819753 45.1764649 128.602669 45.4596643 129.41933 45.6281265 130.267328 45.6257451 130.993839 45.6237447 131.657196 45.4223235 132.295002 45.1089752 132.423238 45.0462484 132.550992 44.9619459 132.644999 44.8575441 133.287626 44.1444969 133.879152 43.3939661 134.154908 42.4586365 134.279769 42.0339803 134.361242 41.5961786 134.446572 41.161187 134.474052 41.0216353 134.450911 40.8726056 134.450911 40.6253657 133.900846 41.194908 133.292447 41.2221039 132.674407 41.2359638M119.172974 35.724149C119.219255 34.1448813 119.671938 32.6945917 120.622621 31.4167652 121.108087 30.7644444 121.702022 30.2081905 122.331633 29.6896108 123.385965 28.8215803 124.589264 28.2559912 125.929476 27.9851276 126.904263 27.7880406 127.890621 27.7045001 128.889031 27.7694179 129.280488 27.7948039 129.654591 27.8408607 129.983859 28.0732404 130.060993 28.1278228 130.16175 28.218698 130.231653 28.2034093 130.511748 28.1416827 130.68289 28.3355785 130.891153 28.4397898 131.105202 28.5469541 131.302377 28.6963648 131.525585 28.7741899 132.120003 28.9815647 132.581846 29.3600212 132.975714 29.8249711 133.313659 30.2240508 133.674263 30.6156052 133.941823 31.059551 134.440787 31.8886689 134.883829 32.7515555 135.341815 33.6046782 135.461855 33.8279609 135.588163 34.0579592 135.648907 34.3000551 135.807032 34.9273709 135.984924 35.5574491 136.056755 36.1972911 136.225487 37.6932088 136.346492 39.1938894 136.144496 40.7015714 136.066397 41.2824017 136.005654 41.8632796 135.770876 42.4066738 135.296498 43.5023211 134.763788 44.5556743 133.932182 45.4510912 133.532046 45.8825583 133.10636 46.2362003 132.573168 46.4755338 131.680336 46.8759947 130.718565 46.9513907 129.763543 47.0661279 129.031247 47.1540502 128.336073 46.9444846 127.629328 46.8236033 127.378158 46.7805471 127.122168 46.7422537 126.880159 46.6648573 126.13099 46.4250952 125.403515 46.1397525 124.849593 45.5497299 124.817293 45.5153897 124.775351 45.4866221 124.732445 45.4659989 123.982311 45.1018309 123.473224 44.4433661 122.841203 43.9355505 122.360076 43.549521 121.962833 43.0568036 121.549682 42.5936159 120.880058 41.8436566 120.308298 41.0283986 119.938052 40.0881156 119.816083 39.7781489 119.639156 39.4826614 119.561057 39.163169 119.334957 38.2383653 119.129104 37.3070365 119.172492 36.3121712 119.172492 36.1375649 119.166707 35.9307617 119.172974 35.724149M34.1903561 29.1131809C34.4596145 29.3833003 34.718294 29.6670195 35.011295 29.9086901 35.3792576 30.2122562 35.8188309 30.3047628 36.2995229 30.3233603 37.0203216 30.3516168 37.6765462 30.1790018 38.3219526 29.8798569 38.7232313 29.6936422 39.1415033 29.5350593 39.5659502 29.4111244 40.5158938 29.1337967 41.2153912 28.4890853 41.9118729 27.8417309 42.3552278 27.4296557 42.7942267 27.0077773 43.1901442 26.5510106 43.645514 26.0258131 44.0585683 25.4625556 44.4764095 24.9057376 44.8102899 24.4608406 45.1483348 24.0160878 45.4405699 23.5439434 45.8621926 22.862758 46.4539388 22.3349654 46.9597616 21.7304764 47.5246059 21.0556824 47.9921821 20.321636 48.1640287 19.4195879 48.2679027 18.8745915 48.482352 18.3503551 48.6532413 17.8185739 48.7772198 17.4315356 48.6996734 17.0606921 48.5666 16.6978737 48.3128987 16.0044822 47.8662888 15.4368037 47.3141775 14.9714831 47.1131312 14.8018956 46.7946165 14.7279864 46.5203798 14.6997779 45.6948456 14.6142873 44.8862566 14.7083798 44.0984425 15.0027192 43.8688668 15.0885942 43.5946301 15.09364 43.344902 15.0768206 42.8586572 15.0443832 42.424876 15.1767278 42.0369046 15.446607 41.4708636 15.8400847 40.8162665 16.0605148 40.2318921 16.4101179 39.8447823 16.6419853 39.3625106 16.6984504 39.0553406 17.0799142 38.8177709 17.3750705 38.5379816 17.6357711 38.2990237 17.9298702 37.9471928 18.3626092 37.596367 18.7982795 37.2796234 19.2568243 36.9228142 19.7732277 36.4042584 20.1524329 36.0541986 20.6480283 35.601653 21.2887511 35.1381457 21.941728 34.8473466 22.6933627 34.6303124 23.2550343 34.3107924 23.7778291 34.106156 24.3431049 33.8155485 25.1458224 33.5078041 25.9489244 33.4890876 26.8269448 33.4792746 27.2872676 33.3975158 27.7458123 33.3733903 28.2065195 33.3568279 28.520898 33.3833469 28.8378715 33.3921546 29.2202964 33.7601171 28.7743903 33.8502529 28.7717953 34.1903561 29.1131809M32.5789703 30.4883825C32.4249785 30.0554514 32.3490117 29.5951286 32.2345111 29.1478288 32.1876481 28.9640169 32.0821467 28.7831844 32.0833434 28.6013908 32.0885132 27.7708491 32.0494528 26.9338681 32.3117224 26.1257203 32.3753392 25.9297023 32.4279942 25.7286865 32.4662887 25.5260368 32.640816 24.6050068 32.7914092 23.6777297 33.275452 22.8503597 33.3308834 22.755258 33.3594128 22.6443462 33.4072809 22.5441987 33.5776437 22.1873873 33.7475757 21.8305759 33.9244485 21.4771764 33.9811244 21.3640539 34.0553201 21.2589087 34.1273138 21.154196 34.3692394 20.8019979 34.5920178 20.4329804 34.8626644 20.1039931 35.3473295 19.5153143 35.8675128 18.9566702 36.3603633 18.3748153 36.5951088 18.0976797 36.8376567 17.8167478 37.0117532 17.5014082 37.3853163 16.8238269 37.8530361 16.2301504 38.4232895 15.7131223 38.5529164 15.5953865 38.6747888 15.467463 38.8137979 15.3619333 39.0753016 15.1635126 39.342741 14.9716754 39.6152066 14.7882479 40.0228518 14.5139476 40.4397356 14.2530548 40.8476202 13.9787545 40.992182 13.881202 41.1142458 13.7504913 41.258664 13.6529388 41.5999161 13.4225131 41.7987605 13.1255307 41.7654921 12.6950504 41.7585033 12.6055712 41.7706619 12.4966296 41.816711 12.4237295 42.1565749 11.8855089 42.7782866 11.6628682 43.3714688 11.8683051 43.583046 11.9413974 43.7556108 11.9261638 43.9576144 11.8112153 44.1584692 11.6970837 44.3958474 11.6186092 44.6251837 11.5899682 45.1728912 11.5211048 45.72955 11.5188942 46.275247 11.4385936 47.1725835 11.3066335 48.0477091 11.2578092 48.8518942 11.7878123 48.8901887 11.8132336 48.9476305 11.8100139 48.9854463 11.8360599 49.3257889 12.0693209 49.7704841 12.0913783 50.0768403 12.4019124 50.3420299 12.6708304 50.5713184 12.9924172 50.9652733 13.1051072 51.0112268 13.1183224 51.039469 13.1998244 51.072498 13.2516762 51.4319879 13.8147414 51.8230707 14.360795 52.1409153 14.9468307 52.4348258 15.4880788 52.6669864 16.0653204 52.8881372 16.6416008 52.9508445 16.8044126 52.8957961 17.0228244 52.859895 17.2088469 52.8455346 17.2819392 52.7407033 17.3758394 52.666029 17.3874688 52.5937481 17.3986657 52.4774284 17.3356171 52.4338684 17.2697331 52.3472271 17.1393588 52.2840411 16.9889934 52.2342582 16.8392527 51.9815143 16.0769498 51.6124508 15.3761577 51.1395134 14.7301969 51.0787209 14.6476858 50.9872927 14.588049 50.8532619 14.4658922 50.803479 14.9102125 50.7498666 15.2822575 50.7273686 15.6560805 50.7216244 15.7515666 50.8077871 15.8567118 50.8633142 15.9508043 51.0145775 16.2070838 51.1069631 16.4577889 50.9466048 16.7559247 50.8819827 16.875871 50.8537405 17.0414699 50.8738452 17.1764095 50.932723 17.5634477 50.7335915 17.8882543 50.6206226 18.2200288 50.4655298 18.6759305 50.2099138 19.0990583 49.9839761 19.528914 49.3908896 20.6552367 48.8600318 21.8129876 48.1903562 22.9010101 47.8346958 23.4788764 47.5467689 24.0989834 47.1273002 24.6400392 46.7972014 25.0660985 46.4958235 25.5164257 46.1444233 25.9235031 45.8029319 26.3189511 45.4148168 26.6741767 45.0456576 27.0454047 44.7450456 27.3473368 44.4857916 27.6845416 44.1201746 27.9286151 43.7117157 28.2015217 43.3676393 28.5719809 42.9579836 28.8424848 42.5519181 29.1107781 42.1960662 29.4399577 41.7844 29.7052716 40.8914674 30.2811196 40.0266813 30.9000252 39.0553406 31.3417505 38.305821 31.6825595 37.5303568 31.9374453 36.6970201 31.9512372 36.3188616 31.9574844 35.939315 31.9202415 35.5617789 31.9376376 35.0467653 31.9616653 34.5780882 31.8094738 34.1518223 31.5569907 33.8235424 31.3627988 33.5175692 31.2883129 33.1106898 31.4997567 32.9132337 31.1325172 32.6994545 30.8271732 32.5789703 30.4883825M86.3208944 54.5331286C86.0056814 54.7750284 85.6417142 54.952262 85.3125025 55.1778755 84.7766887 55.5452759 84.5454682 56.1301467 84.2548737 56.6738226 84.0603395 57.039307 83.9304891 57.4229937 83.8146375 57.8200927 83.5616948 58.6837471 83.5660392 59.5588977 83.6939587 60.4268631 83.7470574 60.7885154 83.9782779 61.1281332 84.1506072 61.466793 84.3026625 61.764258 84.4793362 62.0502268 84.6579408 62.3328424 84.7853776 62.5349845 84.935502 62.7222773 85.074524 62.9167552 85.4254578 63.4077401 85.7517733 63.9183643 86.1326355 64.3858777 86.6206605 64.9846398 87.2250198 65.4588593 87.8902012 65.8612274 88.3975348 66.1682726 88.8899042 66.5002263 89.37986 66.835054 90.432179 67.5545265 91.5486991 68.125985 92.8245151 68.3396232 93.039806 68.375549 93.2555797 68.4124327 93.4703879 68.4502745 94.0728164 68.5580516 94.6395239 68.3180678 95.2163685 68.2351991 95.9138918 68.1350861 96.4651525 67.679069 96.9280763 67.1488053 97.0337909 67.0280949 97.1491598 66.9140906 97.240393 66.7838 97.3972754 66.5586654 97.4624419 66.3589184 97.3562446 66.041335 97.1921214 65.5498711 97.1090944 65.0066742 97.1226105 64.4888648 97.1443326 63.6750274 96.9526947 62.9009479 96.7876062 62.1263893 96.5312845 60.9235961 96.098289 59.775889 95.3660102 58.7627836 95.2255401 58.5687847 95.0903798 58.3623316 94.9137061 58.2047374 94.4739526 57.8138656 94.1930124 57.3109054 93.8657316 56.8386019 93.2396501 55.9351898 92.3389037 55.3948669 91.3396834 55.0016 90.744013 54.7673643 90.1415845 54.5427088 89.5261227 54.3697863 89.0052731 54.2232093 88.4617359 54.157585 87.9476443 54.0598671 87.3780405 54.2035699 86.8011959 54.1652492 86.3208944 54.5331286M97.5560886 58.4231658C97.5473998 58.5136986 97.5295393 58.6128536 97.5551232 58.6966803 97.6420119 58.9860021 97.765587 59.2657438 97.8394424 59.5579396 98.0098408 60.2343012 98.1657578 60.9144949 98.3144341 61.5961256 98.3907031 61.9467607 98.4148388 62.30985 98.5070374 62.6556949 98.5620669 62.8635851 98.7392234 63.0393817 98.7966665 63.2472718 98.9236206 63.7076001 99.0090611 64.1789456 99.1128449 64.6450219 99.243178 65.2351618 99.1311881 65.7874599 98.8376973 66.3057483 98.5953743 66.73542 98.3419488 67.1588645 98.0870753 67.58183 97.86213 67.9544995 97.5918096 68.2677718 97.1766746 68.4665608 96.8175345 68.6380462 96.4878401 68.876593 96.1653864 69.1137028 95.8998931 69.3086597 95.6189529 69.4375133 95.2931202 69.4787082 94.9754936 69.518466 94.6419375 69.5136759 94.344585 69.6137889 93.6523715 69.8475456 92.9896037 69.8231161 92.2693927 69.6875564 90.5996811 69.373805 89.1882221 68.5235629 87.7704879 67.6929602 86.9884894 67.234069 86.2846907 66.639139 85.5649625 66.0810928 84.2872156 65.0914589 83.271583 63.9169273 82.6097806 62.4224172 82.4113847 61.9750222 82.2327801 61.4979286 82.1671308 61.017482 82.0054213 59.826185 82.0730014 58.6348881 82.4113847 57.4728107 82.7685939 56.245109 83.4159148 55.1673373 84.2061195 54.1705183 84.530504 53.7614441 84.918607 53.3997918 85.3771863 53.1559759 86.4261263 52.5964926 87.5103044 52.1390384 88.7349527 52.0767672 89.1529839 52.0556908 89.6072189 52.0432365 89.9847021 51.7783442 90.1502734 51.6624238 90.3105348 51.7136779 90.4785196 51.8109168 90.8101449 52.0044367 91.1644578 52.117483 91.5554571 52.1749641 92.2809779 52.2808253 92.9456766 52.5428435 93.4534929 53.1157391 93.6528542 53.3408736 93.8922809 53.5377466 94.1370175 53.7159381 95.5364086 54.7343126 96.6481015 56.0381768 97.7781376 57.3228807 97.8592337 57.4148505 97.868888 57.589689 97.8616473 57.7233327 97.8592337 57.7616535 97.6815946 57.7899151 97.6251169 57.8095545 97.6024293 58.0049904 97.57588 58.2138386 97.5560886 58.4231658M143.728435 35.8984566C143.633814 36.2150185 143.530458 36.5291549 143.454761 36.8503204 143.442145 36.9043265 143.552779 36.9887265 143.642548 37.1066885 143.90312 36.6762237 143.895356 36.3020916 143.728435 35.8984566M141.747697 33.3352705C141.267798 33.2305254 140.866022 33.3152719 140.44338 33.5056546 139.876624 33.7609831 139.570924 34.2176342 139.431661 34.8067017 139.240478 35.6129817 139.197292 36.4371811 139.265225 37.257866 139.319571 37.9121269 139.448159 38.5603982 139.556367 39.2090655 139.687381 39.9926242 140.192513 40.4639277 140.846612 40.824843 141.520607 41.1967475 142.247006 41.2767914 143.040369 41.3104029 142.996697 41.2107564 142.982626 41.1332371 142.938469 41.0849732 142.265445 40.3533415 141.946159 39.4324161 141.698688 38.5005509 141.556999 37.9676181 141.663751 37.3977077 141.893754 36.8696755 142.061646 36.48297 142.209158 36.0850772 142.339201 35.6833232 142.546883 35.0441108 142.881211 34.495684 143.47223 33.9897294 142.856949 33.7360344 142.341628 33.4644198 141.747697 33.3352705M147.388092 40.674507C147.302205 40.9009762 147.190116 41.1383853 147.027561 41.3085218 146.769415 41.5785028 146.614625 41.8885306 146.497682 42.2346448 146.322997 42.7488166 146.214304 42.8166831 145.674721 42.7818341 145.562631 42.7744089 145.452967 42.7407974 145.340877 42.7316891 145.249653 42.7244619 145.150665 42.7160466 145.065263 42.7426289 144.775091 42.8331671 144.488801 42.9377637 144.202026 43.0392417 143.106846 43.4265907 142.018945 43.3729311 140.939293 42.9754838 140.804397 42.9257844 140.683573 42.8362857 140.547706 42.7900513 139.29628 42.3641407 138.549986 41.3965849 137.973039 40.2642388 137.599891 39.530825 137.414046 38.7289012 137.209276 37.930888 136.967628 36.988479 137.083114 36.1212132 137.475186 35.2534525 137.713922 34.7260638 138.054073 34.2712938 138.349097 33.7835063 138.924589 32.830603 139.657782 32.088873 140.692307 31.6650414 141.205202 31.4548581 141.693351 31.5208436 142.189263 31.6705856 142.497389 31.7638463 142.80794 31.8601267 143.100538 31.9942262 143.655164 32.2485152 144.258799 32.4494417 144.730449 32.8207027 145.4782 33.4103642 146.147827 34.1072954 146.739331 34.8720931 147.537545 35.9036048 147.892254 37.0846109 147.916516 38.3813514 147.923794 39.192136 147.667104 39.9377766 147.388092 40.674507M44.8894789 83.1695229C43.867868 82.362184 42.7817738 81.65494 41.5358838 81.248451 40.645875 80.9585045 39.7331794 80.7376376 38.8282971 80.4946841 38.2701176 80.3447765 37.7074667 80.2117865 37.146981 80.0712776 36.7494446 79.9716525 36.3550619 79.9270092 35.9392631 79.9876301 35.6080456 80.0360329 35.2638373 79.9974986 34.8422022 79.9974986 35.4550746 80.7409271 36.1024479 81.2771167 36.8938022 81.5938492 37.6872746 81.9119915 38.500186 82.1944191 39.3244409 82.4185755 39.9396667 82.5863403 40.5888286 82.6262843 41.2191162 82.7428269 42.2922666 82.942077 43.3624988 83.1563648 44.4338607 83.3650135 44.6474553 83.4068373 44.8606262 83.4510106 45.2026694 83.5205602 45.0522401 83.3495059 44.9833796 83.2433018 44.8894789 83.1695229M42.9378984 84.7964188C42.194224 84.6164358 41.4538914 84.4204752 40.706075 84.2606992 40.0504648 84.1206602 39.3866177 84.0191554 38.7261124 83.9035528 37.8057447 83.7433068 36.9759359 83.3316485 36.1345953 82.9589944 34.9771461 82.4463013 34.0838425 81.6051275 33.3015253 80.628144 32.6778743 79.8490009 32.868076 79.1238997 33.472335 78.4453214 34.1247917 77.7122314 35.0630452 77.6332832 35.9284846 77.4185254 36.5829181 77.2559298 37.2416818 77.4518904 37.8788884 77.6064973 38.691188 77.8038677 39.4909674 78.0529303 40.2936651 78.288365 41.070852 78.5158109 41.8472857 78.7474861 42.6200011 78.9909096 42.9731994 79.1022829 43.3244679 79.2277541 43.6610041 79.3809511 44.1293307 79.5938292 44.5746881 79.8569897 45.0449916 80.0646986 45.531157 80.2794563 45.913208 80.6126364 46.2408954 81.0134862 46.4758589 81.301553 46.6890298 81.6079471 46.9035658 81.9119915 47.2752147 82.4387825 47.6489347 82.9651035 47.4397645 83.6732873 47.410347 83.7733823 47.4344458 83.8918045 47.4460245 84.0008282 47.5070246 84.5736723 47.0653856 85.288905 46.5170434 85.4768768 45.8618097 85.7015031 45.1977743 85.8871253 44.5013562 85.6671982 44.103208 85.5417271 43.7033653 85.4157859 43.3199494 85.2527204 43.1658017 85.1874002 43.0535915 85.0233948 42.9222247 84.9040327 42.9273081 84.8683181 42.9326268 84.8326034 42.9378984 84.7964188M122.929987 26.0600002C122.900584 26.2377775 122.854846 26.3750689 122.860446 26.5101796 122.869314 26.7245078 123.036866 26.8846969 123.25249 26.9020953 123.691205 26.9376508 124.044978 26.7768454 124.285805 26.3965918 124.369348 26.2646574 124.420687 26.1121482 124.499095 25.9764687 124.72452 25.5879188 124.93501 25.20648 125.283649 24.887287 125.669159 24.5348614 125.939856 24.0529193 126.256758 23.6240732 126.591395 23.1711443 127.039911 22.8528994 127.513164 22.5822988 128.226777 22.1744067 128.928722 21.7481207 129.700674 21.4413483 130.419421 21.1559093 130.574371 20.8394658 130.266804 19.9107103 130.080583 19.3479387 129.785617 18.8203434 129.515854 18.2893821 129.464048 18.1868402 129.303963 18.0833502 129.191018 18.0801739 128.678094 18.0651458 128.210908 18.1210864 127.817465 18.5750108 127.443156 19.0067961 126.932099 19.3129522 126.506452 19.7028769 125.768103 20.3788569 125.015753 21.0446918 124.336677 21.7789354 124.007641 22.1346795 123.799017 22.6212201 123.592261 23.0751446 123.332299 23.6469709 123.132543 24.2468623 122.900584 24.8321523 122.848778 24.9627119 122.77877 25.0877722 122.702695 25.2061008 122.390927 25.6933999 122.417997 25.8028159 122.929987 26.0600002M148.188325 34.4680244C148.534795 34.5222298 148.831908 34.2264053 148.940301 33.8953982 149.079663 33.4721886 149.183701 33.0095745 149.164345 32.5702052 149.148377 32.2213885 148.936914 31.876454 148.789325 31.5400118 148.582217 31.0698759 148.350431 30.6109015 148.134613 30.1446478 147.913472 29.6658255 147.698137 29.1838004 147.4799 28.7033767 147.123752 27.917617 146.59824 27.2428886 146.067889 26.5746144 145.721419 26.1384479 145.34785 25.7223233 144.963152 25.3193497 144.886696 25.2392791 144.67233 25.1970115 144.577486 25.2463642 144.2315 25.4261106 143.861803 25.5434019 143.639694 25.9524414 143.448555 26.3042669 143.074019 26.5550092 142.784648 26.8544733 142.707225 26.9343013 142.621575 27.0190306 142.580444 27.1185123 142.401886 27.5493893 142.517537 27.7704327 142.957883 27.9408618 143.130151 28.0075873 143.322258 28.0896961 143.439361 28.2231471 144.234887 29.1326037 145.035253 30.0394884 145.787712 30.9841761 146.287094 31.6109592 146.712439 32.2976254 147.164883 32.9616777 147.32844 33.2014529 147.444576 33.4534084 147.455705 33.7629663 147.469738 34.1426951 147.829757 34.4581248 148.188325 34.4680244M40.2134152 48.3483483C40.5219651 48.1817272 40.6082204 47.8900194 40.6234283 47.5557628 40.6596685 46.7588788 40.6953077 45.9619949 40.7343676 45.1653042 40.7420871 45.0053479 40.7678805 44.8463574 40.7782811 44.6864011 40.8013934 44.3281897 40.8901911 43.9784301 40.7773566 43.6087726 40.7162937 43.4093584 40.7860006 43.169279 40.7802225 42.9479385 40.7715785 42.598372 40.751517 42.2488539 40.7324724 41.8997222 40.691055 41.1463046 40.6596685 40.3920661 40.6014716 39.6400491 40.5360174 38.793855 40.4227669 37.9513314 40.3713188 37.1043162 40.3156642 36.1875133 40.1055267 35.301475 39.9460515 34.4047633 39.9212288 34.2645117 39.87787 34.1226664 39.8162525 33.9952615 39.6845121 33.7234034 39.4662853 33.5923763 39.2721415 33.6451156 38.9842078 33.7232102 38.7363047 34.0125515 38.7505882 34.2931029 38.7603878 34.4836789 38.7969978 34.6774424 38.8520976 34.8595666 39.1973962 36.0005595 39.3405079 37.172317 39.3996292 38.3636343 39.4314318 39.0019625 39.5631723 39.63464 39.597055 40.2731613 39.6488729 41.2495132 39.7000898 42.2301151 39.6694891 43.2061288 39.6284415 44.5161577 39.705683 45.8211638 39.7236182 47.1283432 39.7326782 47.7974359 39.7576858 47.847374 40.2134152 48.3483483M86.2960154 49.1891892C86.5879217 49.1519929 86.7324486 48.9683657 86.6378406 48.715996 86.5888726 48.5855736 86.5004449 48.470218 86.4372144 48.344504 85.9622723 47.3968934 85.7350228 46.3673098 85.4531002 45.3581606 85.1878172 44.408855 84.9857648 43.4426462 84.7280885 42.4911277 84.5155769 41.7060037 84.2574252 40.9332627 84.028274 40.152235 83.9098951 39.7479255 83.8371562 39.3288788 83.6973835 38.9327619 83.4420843 38.2106362 83.152555 37.5000459 82.875862 36.7853594 82.8535174 36.7280583 82.8330745 36.6547016 82.7879098 36.6250858 82.7308597 36.5877954 82.6452846 36.5679731 82.579677 36.5801678 82.5444961 36.5868066 82.493151 36.6802211 82.5007577 36.7259395 82.6096283 37.355875 82.7018593 37.9903306 82.8501895 38.6114143 82.9766506 39.1405432 83.1924901 39.6484372 83.3289349 40.1757769 83.6113329 41.2652042 83.9027638 42.3545844 84.1190788 43.4577602 84.2384085 44.0647187 84.4119359 44.6656506 84.4062309 45.3040141 84.402903 45.6577554 84.5992504 46.0130034 84.7047931 46.3677335 84.8374346 46.8162077 84.9406002 47.2758407 85.1093734 47.710378 85.2667366 48.1152054 85.4592806 48.5163603 85.704596 48.8732562 85.8167946 49.0361665 86.093963 49.087488 86.2960154 49.1891892M69.2078475 67.6876877C69.3218132 67.6700063 69.4391309 67.6650948 69.5492658 67.6336612 70.1554867 67.4602853 70.7664961 67.2986971 71.3645765 67.0983079 72.0871574 66.8566622 72.7733458 66.5349591 73.4279303 66.1238667 74.3928079 65.5177879 75.2494661 64.7692756 76.1516147 64.0801925 77.1040423 63.3523085 78.0928623 62.6740306 79.0644438 61.9726687 79.1812826 61.8881909 79.3033887 61.8061689 79.4039467 61.7030275 79.7032264 61.3980234 79.62278 61.0979309 79.2018731 60.999701 78.7503199 60.8950861 78.3188783 61.0134532 77.9161676 61.2217007 77.3851258 61.4972357 76.9680496 61.9235537 76.5394811 62.3405399 75.4448358 63.4053526 74.4497908 64.5988466 73.1262564 65.3817394 72.2595425 65.8940086 71.3516477 66.3380081 70.4394432 66.7603969 69.97544 66.9750293 69.5756024 67.2608785 69.1666667 67.5482011 69.1805532 67.5943692 69.1944398 67.6410285 69.2078475 67.6876877M48.75 27.0041609C49.252494 27.5734529 49.7059868 28.1426 50.2158772 28.6491043 50.7692216 29.1986906 51.3766523 29.6889182 51.9577333 30.2077385 52.2032018 30.4262883 52.4375758 30.6586997 52.6862803 30.8724197 53.0251286 31.1636584 53.3755338 31.4405525 53.7171558 31.728507 53.9062267 31.8876981 54.0851275 32.0595918 54.2732738 32.2201836 54.4743639 32.3918357 54.6796145 32.5580302 54.8844027 32.7238865 54.9440363 32.7719916 55.0327933 32.7965272 55.0693131 32.8570932 55.3836608 33.3845589 55.9254483 33.6343094 56.3576764 34.0170734 56.5911258 34.2241282 56.8264243 34.4298306 57.0663455 34.6288196 57.1791409 34.7222285 57.3044177 34.7986847 57.4412514 34.8948949 57.5910288 34.6197878 57.4199867 34.5090881 57.3104273 34.4006101 56.0946414 33.197403 54.863138 32.011052 53.6579845 30.7963499 52.9183428 30.0505759 52.1916449 29.2866417 51.5065519 28.4867254 51.0128411 27.9107682 50.6051137 27.2556984 50.1423754 26.6501827 50.0023057 26.4668424 49.8234049 26.3002133 49.6310981 26.1790328 49.242324 25.9337258 48.9215044 26.0987611 48.8207282 26.5690416 48.7906803 26.7093481 48.7740384 26.8526009 48.75 27.0041609M56.448716 11.6871189C57.0725866 11.4247338 57.682751 11.1619805 58.2985869 10.911702 58.5722393 10.8002574 58.8510905 10.6924494 59.1370312 10.621099 59.6796096 10.4860858 60.1470399 10.1655617 60.7326276 10.1084355 61.1338898 10.0693079 61.5077395 9.801537 61.9038028 9.66284118 62.2667821 9.53588363 62.5895879 9.33601067 62.937443 9.18410353 63.0480383 9.1359996 63.1874639 9.08573215 63.2961686 9.11026745 63.6255912 9.18488608 63.817006 8.93189164 64.0651364 8.82661539 64.2343377 8.75466665 64.1795127 8.49591816 63.9932967 8.43055205 63.9219297 8.40541833 63.8373291 8.40597072 63.7602905 8.41154064 63.2049512 8.45200318 62.6604823 8.49960075 62.1179039 8.68046231 61.2884396 8.95624282 60.4183291 9.11353576 59.5779943 9.36096026 58.8605431 9.57234135 58.1577434 9.8314581 57.4544711 10.0856033 57.0598257 10.228304 56.6628171 10.3782778 56.2936936 10.5723967 56.0365833 10.707594 55.813975 10.9122544 55.5951476 11.1061892 55.3871907 11.2906873 55.4108222 11.5567089 55.426419 11.7970444 55.4396526 12.0081953 55.6580073 12.1699074 55.8820336 12.1869854 56.2109835 12.2123033 56.3083452 12.1518627 56.4042889 11.8593724 56.4231941 11.8020159 56.4350098 11.7423578 56.448716 11.6871189M86.5778537 69.4082072C86.443533 69.7183675 86.6335008 69.9197159 86.8167526 70.0745635 87.2590515 70.4488949 87.3976896 70.9213429 87.344441 71.454242 87.273443 72.161984 87.2197147 72.8757711 87.0734011 73.5700279 86.8311441 74.7204574 86.5222066 75.8578667 86.2396534 77.0003911 86.1110893 77.52027 85.9791672 78.0396838 85.8333333 78.6186186 85.9825252 78.6014133 86.0832658 78.6190836 86.1417912 78.5786279 86.4411344 78.3712344 86.580732 78.054564 86.7131338 77.7369636 86.8733592 77.3505421 87.0263888 76.9613305 87.1928506 76.577699 87.2269104 76.4995776 87.3103812 76.4433117 87.3645891 76.3721655 87.4303103 76.286604 87.5142608 76.2038326 87.5464018 76.106181 88.008369 74.7176674 88.3787103 73.3072984 88.3288198 71.8360134 88.3024354 71.0710755 88.1335751 70.3219477 87.5396858 69.7453379 87.2878345 69.5002788 87.0158351 69.277075 86.5778537 69.4082072M111.666667 68.7762693C111.470573 68.6292975 111.350632 68.4983507 111.199754 68.4342509 110.464877 68.1224509 109.733809 67.7982888 108.979894 67.5350215 107.794763 67.1215775 106.59107 66.7557505 105.397372 66.3647414 104.53018 66.0804128 103.661084 65.799747 102.801983 65.4948149 102.328407 65.3267817 101.875297 65.1074686 101.409336 64.9188319 101.250366 64.8547321 101.08283 64.8052836 100.915293 64.7645344 100.733478 64.7201224 100.556898 64.7416416 100.461707 64.9206634 100.356997 65.1184572 100.446 65.2979368 100.614013 65.4000387 100.920053 65.5845547 101.235136 65.7709021 101.571637 65.8899447 102.044261 66.0570621 102.537828 66.1692369 103.025207 66.2956051 104.065171 66.5657402 105.05754 66.9521708 106.025158 67.4045326 106.206498 67.4892359 106.412587 67.5249487 106.606301 67.5853857 107.456834 67.8504844 108.308796 68.1128359 109.158378 68.382971 109.647661 68.5395578 110.127424 68.7268209 110.622419 68.8650934 110.875152 68.9356033 111.15073 68.9360611 111.417266 68.9488811 111.473904 68.9516282 111.534827 68.8705877 111.666667 68.7762693M29.5833333 30.2810269C29.0987686 30.2240911 28.7838159 30.3991371 28.5652314 30.6652145 28.2373786 31.0641424 27.9252448 31.4887832 27.6879314 31.9439875 27.1508108 32.9749553 26.6021758 33.9966928 25.9205267 34.9424687 25.5367258 35.4746236 25.1338138 35.9934511 24.7384506 36.5173647 24.6912459 36.5801401 24.6076344 36.6305771 24.5917243 36.6984857 24.5697942 36.7908829 24.5970755 36.8944883 24.6032388 36.9933843 24.6894782 36.9878744 24.8033332 37.0155653 24.8574657 36.9716272 25.2217731 36.6745152 25.5988373 36.38588 25.9225334 36.0485503 26.2673474 35.6894635 26.5661511 35.2862502 26.8695416 34.890666 27.3365718 34.281796 27.8332721 33.6970377 28.2025485 33.0149847 28.6112417 32.260502 29.0926053 31.544683 29.5206008 30.8002312 29.5950867 30.6705361 29.5625977 30.4809382 29.5833333 30.2810269M25 25.637209C25.4469343 25.6784728 25.8246876 25.5650434 26.1367466 25.3697311 26.6609518 25.0419694 27.1417793 24.6453579 27.6355783 24.2707599 27.9877605 24.0038346 28.3343171 23.7290803 28.6772008 23.4504575 28.7825533 23.3650745 28.8693552 23.2564347 28.9625265 23.1566831 29.0878709 23.0227139 29.2430635 22.9001199 29.1240887 22.6815506 28.9999067 22.4541392 28.8424359 22.2496162 28.5565058 22.2866431 28.3354795 22.3152422 28.1016677 22.3779669 27.9125818 22.490245 27.5857846 22.6840375 27.2276049 22.8780603 26.9930027 23.1616569 26.5110128 23.7440476 25.8924739 24.1807716 25.3961643 24.7405041 25.2570582 24.8974539 25.1485907 25.0859043 25.0534666 25.2735717 25.0050212 25.3695469 25.0184111 25.4959634 25 25.637209M98.4117208 72.3123123C98.2722687 72.6752619 98.3392424 72.9358881 98.4543822 73.1529237 98.8328295 73.866434 99.2351306 74.5675553 99.6429363 75.2645469 99.8892711 75.6857704 100.152579 76.0973579 100.426896 76.5002274 100.878739 77.1655585 101.347096 77.820336 101.806279 78.4810786 101.902152 78.6187333 101.970044 78.7797893 102.081972 78.9009255 102.150781 78.9757179 102.280141 78.9949895 102.381978 79.039039 102.423722 78.9192794 102.483815 78.8018141 102.499411 78.6783837 102.50721 78.6168979 102.435649 78.5439409 102.397116 78.4783255 102.180598 78.1098698 101.954906 77.7469202 101.748021 77.3734171 101.453979 76.8420699 101.188378 76.294663 100.883785 75.7697397 100.27093 74.7139281 99.6741295 73.6457276 98.8644815 72.7202291 98.7484243 72.5871629 98.6016326 72.4816276 98.4117208 72.3123123M61.2975202 19.5825587C61.0811346 19.5580544 60.8661726 19.5267278 60.6493125 19.5110645 60.4490609 19.4966891 60.2469112 19.498151 60.0457106 19.4943918 59.9213838 19.4919205 59.7885154 19.5126656 59.6732047 19.4881265 58.9063645 19.3249846 58.125763 19.316422 57.3394671 19.3658832 57.0433605 19.3844355 56.7425086 19.3986717 56.4558926 19.4510219 56.2812656 19.4829054 56.1104349 19.5674872 55.9728212 19.6572552 55.7521648 19.8015664 55.7977197 20.0002466 56.0781668 20.0604284 56.3913565 20.127711 56.7235274 20.1758843 57.0490548 20.1796435 57.5197884 20.185143 57.991471 20.1471683 58.4622046 20.1210628 59.5137627 20.0627605 60.5638971 19.9995156 61.6149807 19.9400647 61.8038435 19.9294833 61.9946045 19.9332425 62.1829928 19.9193195 62.3153867 19.909295 62.4976061 19.9271512 62.4999788 19.7742774 62.5023514 19.6228656 62.3054215 19.6331686 62.184891 19.6177837 61.8935297 19.5806791 61.5959995 19.5700977 61.3013165 19.5486216 61.2998929 19.559934 61.2989438 19.5712463 61.2975202 19.5825587M73.3333333 52.0824918C73.4156204 52.1317483 73.4684836 52.1702153 73.5273313 52.1983619 74.4788686 52.6599659 75.3700622 53.2402547 76.4158556 53.5184367 77.0033352 53.6746503 77.5808406 53.8721455 78.2142014 53.797557 78.525396 53.7604974 78.779239 53.6418126 79.0196169 53.4673038 79.2126174 53.3279782 79.208129 53.1708264 79.0500382 53.0347846 78.9323428 52.933926 78.779239 52.8466716 78.626634 52.8091428 78.1957491 52.7026549 77.7538927 52.6379177 77.3225091 52.5328371 76.3305763 52.2912456 75.3416357 52.0388646 74.3531939 51.7836689 73.8455078 51.6523181 73.7288098 51.672959 73.3333333 52.0824918M49.6050559 85.6125329C50.0912407 85.6682941 50.5779087 85.762919 51.0645767 85.7657352 51.3564809 85.7679882 51.6541845 85.6452011 51.9393226 85.5438172 52.0983234 85.4874928 52.1398859 85.1726396 51.9915174 85.0808309 51.7131452 84.9084783 51.558494 84.5851765 51.3250674 84.3959266 51.0940571 84.2089297 50.7538244 84.1925956 50.4570874 84.1300756 49.9554376 84.0236225 49.4446053 84.0033458 48.9593871 83.7639672 48.4848012 83.5307843 48.1281369 83.7166547 47.9647865 84.1920324 47.8405823 84.5541981 47.96382 84.9563541 48.253791 85.1382818 48.6771487 85.4041328 49.1101721 85.6367524 49.6050559 85.6125329M42.9706399 73.1531532C42.9359174 73.200788 42.890029 73.2449584 42.8683825 73.2964906 42.7051528 73.6836318 42.5327159 74.0690407 42.3925039 74.4626775 42.2998944 74.7229368 42.2719303 75.0005178 42.1870587 75.2633754 42.0578657 75.6630748 41.8990926 76.0549794 41.763631 76.4533797 41.7129921 76.6023467 41.6613737 76.7599746 41.6671036 76.911973 41.6742538 77.0986149 41.7274883 77.2999802 41.9860211 77.347182 42.2156104 77.3887542 42.4180192 77.2999802 42.5365849 77.1349905 42.7110786 76.8929191 42.8930653 76.6426198 42.9918455 76.3732666 43.2742776 75.6024487 43.4432373 74.8156082 43.2514068 73.9997537 43.2220225 73.8750371 43.2563042 73.7390614 43.2363229 73.6117465 43.2132562 73.4653777 43.1622255 73.3224733 43.1234382 73.1782697 43.0724565 73.1700419 43.0216216 73.161381 42.9706399 73.1531532M32.9166667 70.6306306C32.9298432 70.9246146 32.9097586 71.1562383 32.9550451 71.369055 33.1481737 72.2752581 33.3530717 73.1779967 33.5696537 74.076281 33.6565168 74.4375744 33.8082821 74.7731319 33.8086232 75.1675851 33.8086232 75.3041837 33.9184281 75.4645386 34.0138197 75.5719368 34.1431975 75.7169491 34.3072012 75.7189288 34.4100553 75.5204648 34.487537 75.3709983 34.5761911 75.1997551 34.5797305 75.0354408 34.5871929 74.7102767 34.5914572 74.3623462 34.5031442 74.0609384 34.3496307 73.5378053 34.1287843 73.0409032 33.9287476 72.5370721 33.7810761 72.1648904 33.6220616 71.7996376 33.4671408 71.4319101 33.374393 71.2121646 33.2892782 70.9869748 33.1808806 70.7781175 33.148728 70.7162522 33.0492427 70.7009096 32.9166667 70.6306306M94.7382434 52.5525526C94.7878936 52.5396042 94.9052488 52.5467977 94.9558019 52.4882906 95.1796795 52.2326814 95.4861571 51.9900204 95.5719167 51.682618 95.7118402 51.1805113 95.9763407 50.7340344 96.0815091 50.2242547 96.1162643 50.0549675 96.1577899 49.8871191 96.1826151 49.7163932 96.2142107 49.5001085 96.2435495 49.282385 96.2498686 49.0641821 96.2530282 48.9668299 96.1984129 48.8675596 96.1699768 48.7687688 96.0833145 48.8128889 95.9609943 48.8325512 95.916309 48.9054454 95.6964937 49.2665593 95.4852544 49.6348668 95.2938751 50.0137248 95.1020445 50.3925827 94.9418095 50.7896642 94.7585548 51.1737974 94.6515811 51.3987143 94.5500237 51.6322634 94.2922936 51.7238607 94.2381297 51.7425639 94.1835144 51.8341612 94.1717788 51.900821 94.1230313 52.1804085 94.4313144 52.5525526 94.7382434 52.5525526M52.9166667 77.7867998C51.8702201 77.6601045 49.2527047 78.8955128 48.75 79.749801 48.8875676 79.7963421 49.005083 79.8583969 49.1272617 79.8728764 49.580069 79.9245888 49.964792 79.6789551 50.3625723 79.4969275 50.9184387 79.2430199 51.4696419 78.9782526 52.02784 78.7326189 52.4260866 78.5567969 52.6699776 78.2222179 52.9166667 77.7867998M46.25 8.8873783C46.419736 9.03927554 46.523336 9.2104613 46.6446667 9.22443565 46.907208 9.25435257 47.2116581 9.2762982 47.4408384 9.17232708 48.0440727 8.8982035 48.4704886 8.3864668 48.820218 7.84235291 49.0058286 7.55391055 49.0527196 7.17315876 49.1513863 6.83098404 49.21635 6.60832937 49.0605348 6.47281756 48.9403764 6.30630631 48.4367856 6.48634906 48.2531288 6.94026935 47.9688516 7.30375003 47.6713862 7.68450182 47.3482285 8.04901581 47.0028463 8.38567951 46.8086878 8.5751205 46.5469769 8.69400088 46.25 8.8873783M39.130771 86.5392794C39.1162737 86.3054641 39.1147223 86.070243 39.0841762 85.8378333 39.0471572 85.5566926 38.7748103 85.3486485 38.4698845 85.3453685 38.2465398 85.3425571 37.9538646 85.5960523 37.935783 85.8472047 37.9143847 86.1424024 37.9068418 86.4413487 37.9349271 86.7356094 37.9899742 87.3105421 38.0695224 87.8836006 38.1477866 88.4561905 38.1834683 88.7176514 38.3285488 88.7729424 38.584205 88.6365892 38.791073 88.5260072 38.9486715 88.3793454 38.9762753 88.1591185 39.043145 87.6212026 39.1035952 87.0823496 39.1666667 86.5434965 39.1546301 86.5425594 39.1428076 86.5406851 39.130771 86.5392794M27.9166667 77.863289C28.0431581 77.9437579 28.1669109 78.0621681 28.319796 78.1113667 28.8468199 78.2814771 29.3807373 78.4357439 29.9186208 78.5775026 30.0785883 78.6196133 30.264855 78.6304537 30.4291663 78.6050205 30.8062797 78.5474831 30.9532628 78.2552101 30.7240296 77.983367 30.6012683 77.8382728 30.4020172 77.7027682 30.2076293 77.6531526 29.7608253 77.5389118 29.2963625 77.4788728 28.838746 77.3984039 28.7927105 77.3904821 28.7443142 77.3929838 28.6977121 77.3875636 28.1175231 77.3208536 28.117712 77.3204367 27.9166667 77.863289M32.3247072 85.3418449C32.8168778 85.3429401 33.5505276 84.7487999 33.7107384 84.2132523 33.7360037 84.1289228 33.7447599 84.0347365 33.7481802 83.944931 33.776273 83.2281295 33.4764192 83.1722749 33.0346423 83.2932933 32.9099579 83.3277918 32.7970852 83.4488102 32.6901412 83.5479248 32.4276836 83.7905093 32.1711547 84.0429504 31.9138962 84.2932012 31.7449748 84.4574796 31.6271311 84.8271059 31.6790298 85.0045266 31.7654971 85.3013229 31.9579508 85.3604631 32.1880743 85.3423925 32.2336794 85.3385594 32.2792845 85.3418449 32.3247072 85.3418449M44.591754 87.4843299C44.7468629 88.3118784 45.0454167 89.1527315 45.6992736 89.8481206 45.7752094 89.9288354 45.9660724 89.9949151 46.0579094 89.9607665 46.1511271 89.9266179 46.2132088 89.7647448 46.2413931 89.648551 46.2641976 89.5554185 46.2392031 89.4378942 46.1955936 89.3474227 45.860524 88.6533641 45.5167421 87.9632969 45.1737695 87.2723427 45.1475848 87.2191242 45.1198289 87.1539314 45.0717918 87.1264352 44.9851441 87.0776515 44.8708834 87.0106848 44.7903296 87.0306418 44.7099662 87.0497118 44.6449329 87.1601403 44.5965149 87.242629 44.5699493 87.2878648 44.591754 87.3579359 44.591754 87.4843299M34.5833333 15.6777188C34.5516823 15.5964357 34.5221231 15.4480145 34.4352067 15.3208711 34.3782899 15.2386208 34.2172827 15.1229223 34.1393387 15.1361807 34.0039825 15.1593526 33.8542045 15.2543777 33.7863338 15.3484356 33.6581335 15.5272423 33.8899839 15.8674466 34.1569531 15.9457073 34.4278306 16.0250963 34.5783242 15.9525581 34.5833333 15.6777188"/>
    </g>
  </g>
</svg>
